<?xml version="1.0" encoding="utf-8"?>
<!-- Generator: Adobe Illustrator 22.0.0, SVG Export Plug-In . SVG Version: 6.00 Build 0)  -->
<svg version="1.1" id="Layer_1" xmlns="http://www.w3.org/2000/svg" xmlns:xlink="http://www.w3.org/1999/xlink" x="0px" y="0px"
	 viewBox="0 0 1607.8 620.3" style="enable-background:new 0 0 1607.8 620.3;" xml:space="preserve">
<style type="text/css">
	.st0{fill:none;}
	.st1{fill:#FFFFFF;}
	.st2{fill:#DA9128;}
	.st3{fill:#6A8F88;}
</style>
<g>
	<path class="st0" d="M1268.8,244.5h-1.3c-2.8,0-3.6-1.4-3.6-3.6v-9.3c0-2.2,0.7-3.6,3.6-3.6h0c7.1,0,8.8-2.3,8.8-7.1
		c0-5.5-3.8-6.9-10.2-6.9h-14.4v46.2h16.3c6,0,9.5-2.5,9.5-8C1277.6,246.4,1274.7,244.5,1268.8,244.5z"/>
	<path class="st1" d="M1153.1,367.1c0-7.9-2.6-14.9-7.1-19.3c-5.2-5.2-11.1-7.9-24.5-7.9h-30.1v80.8h19.2v-63.6h12
		c6.4,0,11.3,4.1,11.3,10.4c0,5.8-2.2,10-8.3,10h-2.5c-2.8,0-3.6,1.4-3.6,3.6v9.8c0,3.4,0.2,4.8,1.4,6.3l14.8,23.5h20.3l-20-29.1
		C1143.7,389,1153.1,380,1153.1,367.1z"/>
	<path class="st0" d="M1475.9,213.9h-11.8v46.7h11.8c8.1,0,13.8-4.4,13.8-12.3v-22.1C1489.6,218.4,1484,213.9,1475.9,213.9z"/>
	<path class="st0" d="M1041.6,355.1c-8,0-13.6,4.5-13.6,12.4v25.6c0,7.9,5.7,12.4,13.6,12.4c8.1,0,13.8-4.5,13.8-12.4v-25.6
		C1055.3,359.7,1049.7,355.1,1041.6,355.1z"/>
	<polygon class="st1" points="707.2,228.1 679.8,228.1 679.8,196.8 660.5,196.8 660.5,277.7 679.8,277.7 679.8,246.3 707.2,246.3 
		707.2,277.7 726.5,277.7 726.5,196.6 707.2,196.6 	"/>
	<path class="st1" d="M789.5,250.2c0,7.7-5.2,12.2-13.3,12.2c-8.1,0-13.2-4.4-13.2-12.2v-53.5h-19.3v56.2
		c0,19.3,17.8,26.6,32.5,26.6c14.6,0,32.6-7.3,32.6-26.6v-56.2h-19.3V250.2z"/>
	<path class="st1" d="M902.1,277.7v-81l-15.4,0c-4.1,0-4.7,2.7-5.5,4.2l-17,30.2l-16.8-30.2c-1-1.5-1.5-4.2-5.7-4.2l-15.7,0v81h19.3
		v-45.2l12.7,21.8c0.8,1.4,2.3,2.3,3.9,2.3h4.6c1.6,0,3.1-0.9,3.9-2.3l12.7-21.8v45.2H902.1z"/>
	<path class="st1" d="M939.6,232.4l12.7,21.8c0.8,1.4,2.3,2.3,3.9,2.3h4.6c1.6,0,3.1-0.9,3.9-2.3l12.7-21.8v45.2h18.9v-81l-15.4,0
		c-4.1,0-4.7,2.7-5.5,4.2l-17,30.2l-16.8-30.2c-1-1.5-1.5-4.2-5.7-4.2l-15.7,0v81h19.3V232.4z"/>
	<polygon class="st1" points="1053.3,260.8 1042,260.8 1042,213.9 1053,213.9 1053,196.8 1011.7,196.8 1011.7,213.9 1022.7,213.9 
		1022.7,260.8 1011.4,260.8 1011.4,277.7 1053.3,277.7 	"/>
	<polygon class="st1" points="1340,213.9 1351,213.9 1351,196.8 1309.7,196.8 1309.7,213.9 1320.7,213.9 1320.7,260.8 1309.4,260.8 
		1309.4,277.7 1351.3,277.7 1351.3,260.8 1340,260.8 	"/>
	<path class="st1" d="M1120.1,277.7h14.8v-80.9h-18.9V243l-26.1-42c-1.6-2.5-2.5-4.2-5.5-4.2h-15.1v80.9h19.3v-46.3l26.1,42.2
		C1116.2,275.9,1117,277.7,1120.1,277.7z"/>
	<path class="st1" d="M1216.7,253.9v-21.4c0,0-0.7,0-3.6,0h-26.9c0,0-0.1,0-0.1,0c-1.9,0-3.5,1.6-3.5,3.5v9.7c0,1.9,1.6,3.5,3.5,3.5
		c0,0,0.1,0,0.1,0h11.1c0,9.5-5.7,13.2-13.6,13.2c-8.1,0-13.5-4.5-13.5-12.4v-24.7c0-7.9,5.4-13.3,13.5-13.3c8.2,0,12.7,3.7,14,7.5
		c0.6,1.7,0.1,4.2,3.6,4.2h15.5c0,0,0-0.5,0-3.4c0-16.5-17.7-25.3-33.1-25.3c-14.5,0-33.1,8.2-33.1,27.7v30.2
		c0,19.3,18.6,26.7,33.1,26.7C1197.7,279.5,1215.6,271.6,1216.7,253.9z"/>
	<path class="st1" d="M1285.8,235.7c1.1-0.5,9-4.4,9-16.8c0-11.6-8.6-22.2-28.6-22.2h-33.7v81h35.4c17.1,0,29.3-8,29.3-23.6
		C1297.1,240.8,1286.8,236.1,1285.8,235.7z M1268.1,260.2h-16.3V214h14.4c6.4,0,10.2,1.4,10.2,6.9c0,4.8-1.6,7.1-8.8,7.1h0
		c-2.8,0-3.6,1.4-3.6,3.6v9.3c0,2.2,0.7,3.6,3.6,3.6h1.3c5.9,0,8.8,2,8.8,7.8C1277.6,257.7,1274.1,260.2,1268.1,260.2z"/>
	<path class="st1" d="M1428.9,224.1c0-7.9-2.6-14.9-7.1-19.3c-5.2-5.2-11.1-7.9-24.5-7.9h-30.1v80.8h19.2v-63.6h12
		c6.4,0,11.3,4.1,11.3,10.4c0,5.8-2.2,10-8.3,10h-2.5c-2.8,0-3.6,1.4-3.6,3.6v9.8c0,3.4,0.2,4.8,1.4,6.3l14.8,23.5h20.3l-20-29.1
		C1419.4,245.9,1428.9,237,1428.9,224.1z"/>
	<path class="st1" d="M1475.9,196.8h-31.1v80.9h31.1c14.6,0,33.1-8.4,33.1-27.7v-25.6C1508.9,205.2,1490.5,196.8,1475.9,196.8z
		 M1489.6,248.3c0,7.9-5.7,12.3-13.8,12.3h-11.8v-46.7h11.8c8.1,0,13.8,4.5,13.8,12.3V248.3z"/>
	<path class="st1" d="M707.2,386.1l-26.1-42c-1.6-2.5-2.5-4.2-5.5-4.2h-15.1v80.9h19.3v-46.3l26.1,42.2c1.6,2.5,2.5,4.2,5.5,4.2
		h14.8v-80.9h-18.9V386.1z"/>
	<polygon class="st1" points="763.8,387.3 796,387.3 796,370.6 763.8,370.6 763.8,357.2 804.5,357.2 804.5,339.9 744.4,339.9 
		744.4,420.8 806.6,420.8 806.6,403.5 763.8,403.5 	"/>
	<polygon class="st1" points="815.6,357.2 838.1,357.2 838.1,420.8 857.4,420.8 857.4,357.2 879.7,357.2 879.7,339.9 815.6,339.9 	
		"/>
	<path class="st1" d="M979.2,343.8l-12.2,41.8l-11.9-41.8c-0.5-1.7-1.4-3.9-4.1-3.9h-8.6c-2.8,0-3.7,2.2-4.2,3.9l-11.8,41.8
		l-12.2-41.8c-0.5-1.5-1.2-3.9-4.9-3.9h-16.7l24.5,80.9h13.4c3.2,0,3.9-2.8,3.9-2.8l12.3-39.2l12.3,39.2c0,0,0.7,2.8,3.9,2.8h12.9
		l24.5-80.9h-16.2C980.5,339.9,979.6,342.3,979.2,343.8z"/>
	<path class="st1" d="M1041.6,338c-14.6,0-32.8,8.4-32.8,27.8v29c0,19.4,18.2,27.8,32.8,27.8c14.6,0,33.1-8.4,33.1-27.8v-29
		C1074.6,346.4,1056.2,338,1041.6,338z M1055.3,393.1c0,7.9-5.7,12.4-13.8,12.4c-8,0-13.6-4.5-13.6-12.4v-25.6
		c0-7.9,5.7-12.4,13.6-12.4c8.1,0,13.8,4.5,13.8,12.4V393.1z"/>
	<rect x="1167.9" y="340" class="st1" width="19.2" height="80.8"/>
	<path class="st1" d="M1217.1,340l-17.9,19.7c-1.6,1.8-2.5,4.1-2.5,6.5v18.4c0,1.8,0.5,3.5,1.4,5c6.7,11.1,18.6,31.2,18.6,31.2h23
		l-28.8-47.4l30.7-33.3H1217.1z"/>
	<path class="st0" d="M316.5,205L316.5,205C316.5,205,316.5,205,316.5,205c0-4.2-3.4-7.6-7.6-7.6c-4.2,0-7.6,3.4-7.6,7.6
		c0,3.3,2.1,6.1,5,7.2l0,0c3.3,1.3,6.6,2.1,10.2,2.5V205z"/>
	<path class="st2" d="M316.5,247.1c0,14.8,17.6,13.6,17.6,13.6V235v-20.4l0-9.7c0-13.9-11.3-25.2-25.2-25.2
		c-12.2,0-22.4,8.8-24.7,20.3c-0.3,1.6-0.5,3.2-0.5,4.9c0,8,3.8,15.2,9.7,19.8c0.1,0.1,0.3,0.2,0.4,0.3c1.5,1.1,3.1,2.1,4.9,2.9
		c4.8,2.3,11.2,4.5,17.8,5.8V246C316.5,246.3,316.5,246.7,316.5,247.1z M306.3,212.1L306.3,212.1c-2.9-1.1-5-3.9-5-7.2
		c0-4.2,3.4-7.6,7.6-7.6c4.2,0,7.6,3.4,7.6,7.6c0,0,0,0,0,0l0,0v9.7C312.9,214.2,309.6,213.4,306.3,212.1z"/>
	<path class="st2" d="M494.1,320.9c-37.6,42-86.6,70.2-141.1,77.4c-0.4,0.1-0.8,0.1-1.1,0.2c-0.2,0-0.4,0-0.6,0.1
		c-0.8,0.1-1.6,0.2-2.5,0.3c-0.6,0.1-1.1,0.1-1.7,0.2c-0.1,0-0.1,0-0.2,0c-7.2,0.7-14.5,1.1-21.9,1.1c-28.2,0-54.8-5.6-78.9-15.4
		c-31-12.4-59.1-31.9-83.1-56.8l25-30.3c34.4,35.3,79.1,57.7,128,60.2v14.5c0,0.4,0,0.8,0,1.2c0,4.6,1.6,7.7,3.9,9.8
		c3.8,3.5,9.7,4.3,13.8,4.4c0.2,0,0.4,0,0.6,0v-29.9c52.1-2.7,99.4-27.8,134.7-67.3l6.5-7.3l-50.2-60.9l-6.5,7.3
		c-18.9,21.1-42.8,36.1-69.5,41.7c-7.8,1.7-15.9,2.6-24.1,2.6c-8.2,0-16.2-0.9-24-2.6c-23.7-5-45.1-17.3-62.8-34.7l38.3-46.4l0,0
		l5.8-7.1l42.7-51.8l48.6,58.9c-2.2,2-4.6,3.9-6.9,5.7c-1.6,1.2-3.2,2.3-4.8,3.4c-0.8,0.5-0.8,0.5-1.7,1c-1.9,1.1-5.4,3.1-5.5,3.1
		c0,0-0.1,0.1-0.2,0.1c-3.7,2.2-6,6.2-6,10.5v14.1c17.8-4.6,32.5-14.3,45.4-28.6l6.5-7.3l-68.8-83.3l-6.5-7.9l-75.3,91.2l-24.9,30.1
		l-12.4,15.1c4.2,4.7,8.8,9.4,13.5,14c0.7,0.7,1.4,1.3,2.1,2c1,1,2.1,2,3.2,3c0.8,0.7,1.5,1.4,2.3,2.1c2,1.8,4,3.5,6.1,5.1
		c0.6,0.5,1.2,1,1.8,1.4c0,0,0,0,0.1,0.1c4,3.2,8.2,6.1,12.4,8.7c0,0,0.1,0.1,0.1,0.1c0.3,0.2,0.6,0.4,0.9,0.6
		c0.3,0.2,0.6,0.4,0.9,0.5c0.5,0.3,0.9,0.6,1.4,0.8c3.8,2.3,7.8,4.4,11.8,6.3c0.8,0.4,1.5,0.7,2.3,1.1c0.7,0.3,1.5,0.7,2.2,1
		c0.8,0.4,1.6,0.7,2.5,1c1.1,0.4,2.1,0.9,3.2,1.3c1.6,0.6,3.2,1.2,4.8,1.7c2.7,0.9,5.4,1.7,8.2,2.5c0.6,0.1,1.1,0.3,1.7,0.4
		c7.1,1.8,14.4,3,21.9,3.5v14.7c0,0.1,0,0.8,0,1.7c0.3,12,12,13.6,18.3,13.6l0-30c7.5-0.5,14.8-1.7,21.9-3.5
		c2.2-0.6,4.4-1.2,6.6-1.8c4-1.2,7.9-2.6,11.8-4.2c0.9-0.4,1.8-0.8,2.7-1.1c1.3-0.6,2.6-1.2,3.9-1.8c4.1-1.9,8.1-4.1,12-6.4
		c2-1.2,4-2.5,6-3.8c1.5-1,3-2,4.4-3c1-0.7,2-1.4,2.9-2.1c0.8-0.6,1.5-1.1,2.2-1.7c0.6-0.5,1.2-0.9,1.8-1.4c2.1-1.6,4.1-3.3,6.1-5.1
		c0.8-0.7,1.6-1.4,2.3-2.1c1.8-1.6,3.5-3.3,5.2-5l17.4,21l7.9,9.5c-18.2,18.5-39.4,33.3-62.7,42.8c-0.9,0.4-1.7,0.7-2.6,1
		c-18.3,7.2-38.2,11.3-59,11.3c-20.8,0-40.6-4-59-11.3c-0.9-0.3-1.7-0.7-2.6-1c-13.4-5.5-26.2-12.8-38-21.5c-4-3-8-6.1-11.8-9.4
		c-4.7-4.1-9-8.2-12.7-12.1c-6.3-6.5-10.9-12-13-14.6l-13.2,16l0.2,0.2l-0.2-0.2l-25,30.3l-11.2,13.6c1.4,2.1,5.4,7.8,12.3,15.5
		c10,11.1,26.2,26.3,49.9,41.2c10,6.4,20.4,12,31.1,16.9c26.2,11.9,54.5,19,84.1,20.2v14.6c0,0.4,0,0.8,0,1.2c0,1.9,0.3,3.5,0.7,4.9
		c0,0,0,0.1,0,0.1c0,0,0,0.1,0,0.1c2.8,7.7,12.1,8.9,17.5,8.9V421c63.4-2.6,120.8-32.2,165.1-78.3l5.9,7.2l19.1,23.1
		c-14.9,15.7-31.1,29.7-48.4,41.7c-4.8,3.3-9.7,6.5-14.7,9.6c-17.2,10.5-35.4,19.1-54.4,25.5c-1.5,0.5-2.9,1-4.4,1.5
		c-2.6,0.8-5.1,1.6-7.7,2.3c-2.4,0.7-4.8,1.3-7.2,1.9c-19.8,5.1-40.7,7.9-62.6,7.9c-31.9,0-62-5.9-89.1-16.3c-0.3-0.1-0.7-0.3-1-0.4
		v0c-18.1-6.8-35.3-15.6-51.7-26.1c-1-0.6-2-1.3-2.9-1.9c-2.9-1.9-5.8-3.9-8.7-6c-5.3-3.8-10.5-7.8-15.6-11.9
		c-6.3-5.1-12.3-10.5-18.2-16.1c-4.3-4.2-8.2-8.2-11.6-11.8c-11.6-11.8-27.3,2.5-27.3,2.5l6.5,7.3c54.8,61.2,129.6,98.7,210.8,101.4
		v19.8c0,0.4,0,0.8,0,1.2c0,0.8,0.1,1.6,0.2,2.3c0,0.1,0,0.2,0,0.3c0,0,0,0,0,0c0,0.2,0.1,0.4,0.1,0.5c1.9,9.4,12.2,10.8,18,10.8
		v-35.1c81.2-2.7,154.9-41.3,209.7-102.5l6.5-7.3l-50-60.6L494.1,320.9z"/>
</g>
</svg>
