<?xml version="1.0" encoding="utf-8"?>
<!-- Generator: Adobe Illustrator 22.0.0, SVG Export Plug-In . SVG Version: 6.00 Build 0)  -->
<svg version="1.1" id="Layer_1" xmlns="http://www.w3.org/2000/svg" xmlns:xlink="http://www.w3.org/1999/xlink" x="0px" y="0px"
	 viewBox="0 0 600 600" style="enable-background:new 0 0 600 600;" xml:space="preserve">
<style type="text/css">
	.st0{fill:none;}
	.st1{fill:#FFFFFF;}
	.st2{fill:#DA9128;}
	.st3{fill:#6A8F88;}
</style>
<g>
	<path class="st0" d="M291.7,194.8L291.7,194.8C291.7,194.8,291.7,194.8,291.7,194.8c0-4.2-3.4-7.6-7.6-7.6s-7.6,3.4-7.6,7.6
		c0,3.3,2.1,6.1,5,7.2l0,0c3.3,1.3,6.6,2.1,10.2,2.5V194.8z"/>
	<path class="st2" d="M291.7,237c0,14.8,17.6,13.6,17.6,13.6v-25.8v-20.4l0-9.7c0-13.9-11.3-25.2-25.2-25.2
		c-12.2,0-22.4,8.8-24.7,20.3c-0.3,1.6-0.5,3.2-0.5,4.9c0,8,3.8,15.2,9.7,19.8c0.1,0.1,0.3,0.2,0.4,0.3c1.5,1.1,3.1,2.1,4.9,2.9
		c4.8,2.3,11.2,4.5,17.8,5.8v12.2C291.7,236.2,291.7,236.6,291.7,237z M281.5,201.9L281.5,201.9c-2.9-1.1-5-3.9-5-7.2
		c0-4.2,3.4-7.6,7.6-7.6s7.6,3.4,7.6,7.6c0,0,0,0,0,0l0,0v9.7C288.2,204,284.9,203.3,281.5,201.9z"/>
	<path class="st2" d="M469.4,310.7c-37.6,42-86.6,70.2-141.1,77.4c-0.4,0.1-0.8,0.1-1.1,0.2c-0.2,0-0.4,0-0.6,0.1
		c-0.8,0.1-1.6,0.2-2.5,0.3c-0.6,0.1-1.1,0.1-1.7,0.2c-0.1,0-0.1,0-0.2,0c-7.2,0.7-14.5,1.1-21.9,1.1c-28.2,0-54.8-5.6-78.9-15.4
		c-31-12.4-59.1-31.9-83.1-56.8l25-30.3c34.4,35.3,79.1,57.7,128,60.2v14.5c0,0.4,0,0.8,0,1.2c0,4.6,1.6,7.7,3.9,9.8
		c3.8,3.5,9.7,4.3,13.8,4.4c0.2,0,0.4,0,0.6,0v-29.9c52.1-2.7,99.4-27.8,134.7-67.3l6.5-7.3l-50.2-60.9l-6.5,7.3
		c-18.9,21.1-42.8,36.1-69.5,41.7c-7.8,1.7-15.9,2.6-24.1,2.6c-8.2,0-16.2-0.9-24-2.6c-23.7-5-45.1-17.3-62.8-34.7l38.3-46.4l0,0
		l5.8-7.1l42.7-51.8l48.6,58.9c-2.2,2-4.6,3.9-6.9,5.7c-1.6,1.2-3.2,2.3-4.8,3.4c-0.8,0.5-0.8,0.5-1.7,1c-1.9,1.1-5.4,3.1-5.5,3.1
		c0,0-0.1,0.1-0.2,0.1c-3.7,2.2-6,6.2-6,10.5v14.1c17.8-4.6,32.5-14.3,45.4-28.6l6.5-7.3L307,98.9l-6.5-7.9l-75.3,91.2l-24.9,30.1
		L188,227.4c4.2,4.7,8.8,9.4,13.5,14c0.7,0.7,1.4,1.3,2.1,2c1,1,2.1,2,3.2,3c0.8,0.7,1.5,1.4,2.3,2.1c2,1.8,4,3.5,6.1,5.1
		c0.6,0.5,1.2,1,1.8,1.4c0,0,0,0,0.1,0.1c4,3.2,8.2,6.1,12.4,8.7c0,0,0.1,0.1,0.1,0.1c0.3,0.2,0.6,0.4,0.9,0.6
		c0.3,0.2,0.6,0.4,0.9,0.5c0.5,0.3,0.9,0.6,1.4,0.8c3.8,2.3,7.8,4.4,11.8,6.3c0.8,0.4,1.5,0.7,2.3,1.1c0.7,0.3,1.5,0.7,2.2,1
		c0.8,0.4,1.6,0.7,2.5,1c1.1,0.4,2.1,0.9,3.2,1.3c1.6,0.6,3.2,1.2,4.8,1.7c2.7,0.9,5.4,1.7,8.2,2.5c0.6,0.1,1.1,0.3,1.7,0.4
		c7.1,1.8,14.4,3,21.9,3.5v14.7c0,0.1,0,0.8,0,1.7c0.3,12,12,13.6,18.3,13.6l0-30c7.5-0.5,14.8-1.7,21.9-3.5
		c2.2-0.6,4.4-1.2,6.6-1.8c4-1.2,7.9-2.6,11.8-4.2c0.9-0.4,1.8-0.8,2.7-1.1c1.3-0.6,2.6-1.2,3.9-1.8c4.1-1.9,8.1-4.1,12-6.4
		c2-1.2,4-2.5,6-3.8c1.5-1,3-2,4.4-3c1-0.7,2-1.4,2.9-2.1c0.8-0.6,1.5-1.1,2.2-1.7c0.6-0.5,1.2-0.9,1.8-1.4c2.1-1.6,4.1-3.3,6.1-5.1
		c0.8-0.7,1.6-1.4,2.3-2.1c1.8-1.6,3.5-3.3,5.2-5l17.4,21l7.9,9.5c-18.2,18.5-39.4,33.3-62.7,42.8c-0.9,0.4-1.7,0.7-2.6,1
		c-18.3,7.2-38.2,11.3-59,11.3c-20.8,0-40.6-4-59-11.3c-0.9-0.3-1.7-0.7-2.6-1c-13.4-5.5-26.2-12.8-38-21.5c-4-3-8-6.1-11.8-9.4
		c-4.7-4.1-9-8.2-12.7-12.1c-6.3-6.5-10.9-12-13-14.6l-13.2,16l0.2,0.2l-0.2-0.2l-25,30.3L114,317c1.4,2.1,5.4,7.8,12.3,15.5
		c10,11.1,26.2,26.3,49.9,41.2c10,6.4,20.4,12,31.1,16.9c26.2,11.9,54.5,19,84.1,20.2v14.6c0,0.4,0,0.8,0,1.2c0,1.9,0.3,3.5,0.7,4.9
		c0,0,0,0.1,0,0.1c0,0,0,0.1,0,0.1c2.8,7.7,12.1,8.9,17.5,8.9v-29.9c63.4-2.6,120.8-32.2,165.1-78.3l5.9,7.2l19.1,23.1
		c-14.9,15.7-31.1,29.7-48.4,41.7c-4.8,3.3-9.7,6.5-14.7,9.6c-17.2,10.5-35.4,19.1-54.4,25.5c-1.5,0.5-2.9,1-4.4,1.5
		c-2.6,0.8-5.1,1.6-7.7,2.3c-2.4,0.7-4.8,1.3-7.2,1.9c-19.8,5.1-40.7,7.9-62.6,7.9c-31.9,0-62-5.9-89.1-16.3c-0.3-0.1-0.7-0.3-1-0.4
		v0c-18.1-6.8-35.3-15.6-51.7-26.1c-1-0.6-2-1.3-2.9-1.9c-2.9-1.9-5.8-3.9-8.7-6c-5.3-3.8-10.5-7.8-15.6-11.9
		c-6.3-5.1-12.3-10.5-18.2-16.1c-4.3-4.2-8.2-8.2-11.6-11.8c-11.6-11.8-27.3,2.5-27.3,2.5l6.5,7.3c54.8,61.2,129.6,98.7,210.8,101.4
		v19.8c0,0.4,0,0.8,0,1.2c0,0.8,0.1,1.6,0.2,2.3c0,0.1,0,0.2,0,0.3c0,0,0,0,0,0c0,0.2,0.1,0.4,0.1,0.5c1.9,9.4,12.2,10.8,18,10.8
		v-35.1c81.2-2.7,154.9-41.3,209.7-102.5l6.5-7.3l-50-60.6L469.4,310.7z"/>
</g>
</svg>
