<?xml version="1.0" encoding="UTF-8" standalone="no"?>
<svg width="110px" height="76px" viewBox="0 0 110 76" version="1.1" xmlns="http://www.w3.org/2000/svg" xmlns:xlink="http://www.w3.org/1999/xlink">
    <!-- Generator: Sketch 48.1 (47250) - http://www.bohemiancoding.com/sketch -->
    <title>analyze icon</title>
    <desc>Created with Sketch.</desc>
    <defs></defs>
    <g id="Artboard-4-Copy-2" stroke="none" stroke-width="1" fill="none" fill-rule="evenodd" transform="translate(-517.000000, -40.000000)">
        <g id="analyze-icon" transform="translate(517.000000, 42.000000)">
            <g id="photo-copy-9" transform="translate(0.000000, 15.000000)" fill="#7D9C96" fill-rule="nonzero">
                <g id="Group">
                    <path d="M6.42857145e-08,0.236158696 L6.42857145e-08,2.19268043 L6.42857145e-08,42.627587 L6.42857145e-08,44.5841087 L1.92391311,44.5841087 L57.076087,44.5841087 L59,44.5841087 L59,42.627587 L59,2.19268043 L59,0.236158696 L57.076087,0.236158696 L1.92391311,0.236158696 L6.42857145e-08,0.236158696 Z M3.84782609,4.14920217 L55.1521739,4.14920217 L55.1521739,33.0080217 C47.7488026,25.0441087 43.8542147,21.0767174 43.4684103,21.1058478 C43.1512084,21.1293261 39.8311223,24.464913 33.5081522,31.1126087 L19.1188859,15.8884239 L3.84782609,31.7851957 L3.84782609,4.14920217 Z M33.9891304,8.06233696 C30.8242742,8.06233696 28.2173913,10.7134043 28.2173913,13.9319022 C28.2173913,17.1504 30.8242742,19.8014674 33.9891304,19.8014674 C37.1539866,19.8014674 39.7608696,17.1504 39.7608696,13.9319022 C39.7608696,10.7134043 37.1539866,8.06233696 33.9891304,8.06233696 Z M33.9891304,11.9753804 C35.0744675,11.9753804 35.9130435,12.828163 35.9130435,13.9319022 C35.9130435,15.0356348 35.0744675,15.8884239 33.9891304,15.8884239 C32.9037934,15.8884239 32.0652174,15.0356348 32.0652174,13.9319022 C32.0652174,12.828163 32.9037934,11.9753804 33.9891304,11.9753804 Z M19.1990489,20.7389674 L36.7347147,40.6710652 L3.84782609,40.6710652 L3.84782609,37.5121304 L19.1990489,20.7389674 Z M43.5886549,25.9359783 L55.1521739,38.8164783 L55.1521739,40.6710652 L41.905231,40.6710652 L36.0733696,34.0474565 L43.5886549,25.9359783 Z" id="Shape"></path>
                </g>
            </g>
            <g id="Group-2-Copy-5" transform="translate(36.000000, 0.000000)">
                <g id="Group-10-Copy-2" transform="translate(52.677670, 52.470563) rotate(-405.000000) translate(-52.677670, -52.470563) translate(46.177670, 28.470563)" fill="#D8D8D8">
                    <polygon id="Rectangle-2-Copy-16" transform="translate(10.500000, 28.000000) rotate(-270.000000) translate(-10.500000, -28.000000) " points="-9 30 30 30 30 26 -9 26"></polygon>
                    <polygon id="Rectangle-2-Copy-20" transform="translate(2.500000, 28.000000) rotate(-270.000000) translate(-2.500000, -28.000000) " points="-17 30 22 30 22 26 -17 26"></polygon>
                    <polygon id="Rectangle-2-Copy-15" transform="translate(7.093336, 45.589123) rotate(-630.000000) translate(-7.093336, -45.589123) " points="5.00333652 40.9966635 5.00333652 50.1815824 9.18333634 50.1815824 9.18333634 40.9966635"></polygon>
                    <polygon id="Rectangle-2-Copy-17" transform="translate(7.093336, 37.760696) rotate(-630.000000) translate(-7.093336, -37.760696) " points="5.00333652 33.1682364 5.00333652 42.3531553 9.18333634 42.3531553 9.18333634 33.1682364"></polygon>
                    <polygon id="Rectangle-2-Copy-19" points="12.5724435 8.41104143 7.97998405 0.456668301 4.35999801 2.54666822 8.43060353 8.91678115"></polygon>
                    <polygon id="Rectangle-2-Copy-22" points="0.359998007 8.41104143 4.95245748 0.456668301 8.57244352 2.54666822 4.501838 8.91678115"></polygon>
                </g>
                <circle id="Oval-5-Copy-3" stroke="#D8D8D8" stroke-width="5" transform="translate(21.211418, 21.711418) rotate(-360.000000) translate(-21.211418, -21.711418) " cx="21.2114178" cy="21.7114178" r="21"></circle>
            </g>
        </g>
    </g>
</svg>