<?xml version="1.0" encoding="UTF-8" standalone="no"?>
<svg width="140px" height="78px" viewBox="0 0 140 78" version="1.1" xmlns="http://www.w3.org/2000/svg" xmlns:xlink="http://www.w3.org/1999/xlink">
    <!-- Generator: Sketch 47.1 (45422) - http://www.bohemiancoding.com/sketch -->
    <title>bear</title>
    <desc>Created with Sketch.</desc>
    <defs></defs>
    <g id="Page-1" stroke="none" stroke-width="1" fill="none" fill-rule="evenodd">
        <g id="Home" transform="translate(-651.000000, -2147.000000)" fill-rule="nonzero" fill="#DA9127">
            <g id="Heres-how-ti-works" transform="translate(0.000000, 2035.000000)">
                <g id="Here's-how-it-works-bear" transform="translate(432.000000, 112.000000)">
                    <g id="bear" transform="translate(219.000000, 0.000000)">
                        <path d="M131.756264,16.2250666 C129.98975,15.0450618 128.959283,12.8325527 128.812073,12.2425503 C126.30951,9.14503754 121.598804,5.90002422 119.83229,4.72001938 C119.390661,6.63752725 117.329727,8.85003633 117.182517,8.70253573 C116.740889,8.40753452 118.949032,3.09751272 118.065775,0 C116.15205,1.18000484 111.882973,3.54001453 109.233201,4.42501817 C109.233201,4.42501817 109.233201,4.42501817 109.233201,4.42501817 L99.8117886,6.63752725 C99.8117886,6.63752725 99.8117886,6.63752725 99.664579,6.63752725 C99.5173694,6.63752725 99.664579,6.63752725 99.5173694,6.63752725 C99.5173694,6.63752725 99.5173694,6.63752725 99.5173694,6.63752725 C99.5173694,6.63752725 99.5173694,6.63752725 99.5173694,6.63752725 C97.6036451,6.78502786 95.6899207,6.49002664 93.3345677,6.19502543 C88.0350233,5.60502301 81.4105929,4.72001938 72.5780189,7.9650327 C66.5424267,10.1775418 61.3900919,9.29253815 55.943338,8.26003391 C49.3189075,7.08002907 42.5472675,5.90002422 32.9786458,9.58753936 C27.2374727,11.8000484 22.5267666,15.9300654 18.6993179,21.682589 C13.8414022,29.0576193 11.7804683,38.0551562 12.8109353,47.0526932 L13.252564,51.1827101 C13.252564,51.4777113 13.252564,51.6252119 13.1053544,51.9202132 C12.3693066,52.8052168 5.89208567,61.2127513 0.739750873,61.2127513 C0.739750873,61.2127513 0.739750873,61.2127513 0.739750873,61.2127513 C0.298122176,61.2127513 0.00370304453,61.8027537 0.00370304453,62.835258 C-0.143506521,67.4077767 4.12557088,76.8478155 7.95301959,77.4378179 L9.57232481,76.9953161 C8.83627698,74.9303076 7.80581003,70.6527901 10.3083726,69.177784 C10.7500013,68.8827828 11.7804683,68.440281 13.1053544,67.702778 C17.8160605,65.1952677 27.5318918,59.8852459 32.8314362,56.3452313 C32.8314362,56.3452313 32.8314362,56.3452313 32.8314362,56.3452313 C34.1563223,55.4602277 35.3339988,54.7227247 35.9228371,54.1327222 C39.3086571,50.8877089 42.8416867,47.6426956 42.6944771,48.0851974 C42.6944771,48.232698 41.0751719,51.9202132 37.2477232,55.6077283 C36.953304,55.9027295 36.5116753,56.1977307 36.0700466,56.6402325 C39.7502858,56.7877331 47.5523928,56.4927319 58.1514815,51.7727126 C58.4459006,51.6252119 58.8875293,51.6252119 59.1819484,51.9202132 C59.4763676,52.0677138 59.6235771,52.5102156 59.4763676,52.8052168 C58.8875293,57.0827344 57.5626432,65.7852701 57.5626432,67.5552773 C57.5626432,69.4727852 62.4205589,76.5528143 63.8926545,77.7328191 C64.7759119,78.1753209 70.517085,78.0278203 75.6694198,77.5853185 C75.3750007,76.4053137 74.3445337,74.4878058 71.547552,74.045304 C71.1059233,74.045304 70.6642946,73.6028022 70.6642946,73.0127998 C70.6642946,72.5702979 71.4003424,61.6552531 76.9943059,56.7877331 C79.2024494,54.8702253 83.0298981,52.0677138 86.7101372,49.2652023 C90.8320051,46.1676895 95.9843399,42.3326738 96.5731781,41.4476702 C96.5731781,41.4476702 96.5731781,41.4476702 96.5731781,41.4476702 C96.5731781,41.4476702 96.5731781,41.4476702 96.5731781,41.4476702 C96.5731781,41.4476702 96.5731781,41.4476702 96.5731781,41.3001696 C96.5731781,41.3001696 96.5731781,41.3001696 96.5731781,41.3001696 C96.5731781,41.3001696 96.5731781,41.3001696 96.5731781,41.152669 C96.5731781,41.152669 96.5731781,41.152669 96.5731781,41.152669 C96.8675973,40.8576677 103.344818,34.0726399 110.705296,35.2526447 C114.974374,35.8426472 118.065775,34.0726399 121.009966,32.3026326 C122.482062,31.417629 123.806948,30.680126 125.279043,30.0901235 C129.106492,28.9101187 135.436503,26.6976096 136.46697,26.4026084 L139.558371,23.8950981 C140,23.0100945 140,22.420092 140,21.9775902 C137.055809,20.0600824 134.406037,18.1425745 132.639522,16.9625696 C132.639522,16.815069 132.050683,16.5200678 131.756264,16.2250666 Z" id="Shape"></path>
                        <path d="M111.266094,73.3829787 C110.974249,73.3829787 110.682403,73.2340426 110.536481,72.9361702 C109.95279,72.1914894 97.5493562,55.212766 97.695279,43 C96.8197425,44.0425532 94.3390558,46.1276596 87.6266094,51.1914894 C86.751073,51.787234 85.8755365,52.5319149 85,53.1276596 C85.583691,54.6170213 89.2317597,62.9574468 93.4635193,67.7234043 C97.5493562,72.4893617 104.553648,77.2553191 106.012876,78 L119,78 C119,77.4042553 118.708155,76.6595745 118.270386,75.9148936 C117.103004,74.5744681 114.622318,73.6808511 111.266094,73.3829787 Z" id="Shape"></path>
                        <path d="M34.2405063,58 C32.7848101,59.0530973 30.8924051,60.1061947 29,61.3097345 C30.164557,63.1150442 32.4936709,66.5752212 32.2025316,68.8318584 C31.9113924,71.0884956 32.6392405,73.7964602 33.0759494,75 L52,75 C51.7088608,73.7964602 51.2721519,72.4424779 50.5443038,72.4424779 C48.0696203,72.1415929 45.5949367,70.1858407 43.9936709,67.4778761 C42.6835443,65.2212389 43.556962,60.4070796 44.1392405,58 C38.7531646,58.6017699 35.4050633,58.1504425 34.2405063,58 Z" id="Shape"></path>
                    </g>
                </g>
            </g>
        </g>
    </g>
</svg>