<?xml version="1.0" encoding="UTF-8" standalone="no"?>
<svg width="99px" height="123px" viewBox="0 0 99 123" version="1.1" xmlns="http://www.w3.org/2000/svg" xmlns:xlink="http://www.w3.org/1999/xlink">
    <!-- Generator: Sketch 47.1 (45422) - http://www.bohemiancoding.com/sketch -->
    <title>deer</title>
    <desc>Created with Sketch.</desc>
    <defs></defs>
    <g id="Page-1" stroke="none" stroke-width="1" fill="none" fill-rule="evenodd">
        <g id="Take-Action" transform="translate(-687.000000, -190.000000)" fill-rule="nonzero" fill="#DA9127">
            <g id="digital-voulnteer-header" transform="translate(421.000000, 190.000000)">
                <g id="deer" transform="translate(266.000000, 0.000000)">
                    <path d="M66.2162162,22.0725806 C65.4054054,22.0725806 65.1351351,22.2096774 65,22.3467742 C65.2702703,23.0322581 69.8648649,25.5 71.2162162,25.6370968 L71.3513514,25.6370968 L71.4864865,25.7741935 C71.8918919,26.4596774 72.2972973,27.0080645 72.5675676,27.5564516 C74.4594595,30.2983871 77.1621622,32.766129 78.6486486,34 C79.0540541,33.3145161 79.5945946,32.3548387 80,31.5322581 L79.8648649,31.3951613 C78.3783784,30.0241935 76.2162162,28.1048387 74.8648649,26.0483871 C74.4594595,25.3629032 73.9189189,24.5403226 73.3783784,23.7177419 L73.3783784,23.7177419 C70.4054054,18.3709677 69.0540541,17 68.7837838,17 C68.7837838,17 68.7837838,17 68.6486486,17.1370968 C68.3783784,17.9596774 68.7837838,20.5645161 69.4594595,22.0725806 L69.7297297,22.7580645 L69.0540541,22.6209677 C68.7837838,22.3467742 67.2972973,22.0725806 66.2162162,22.0725806 Z" id="Shape"></path>
                    <path d="M91.5497382,12.8378378 C90.460733,14.0540541 89.3717277,15.1351351 88.6910995,15.4054054 L88.2827225,15.5405405 L88.2827225,15 C88.0104712,11.7567568 84.8795812,1.89189189 83.7905759,0 C83.6544503,1.62162162 84.4712042,7.56756757 85.0157068,11.3513514 C85.2879581,13.6486486 85.5602094,15.6756757 85.6963351,16.4864865 L85.6963351,16.6216216 L85.5602094,16.7567568 C84.6073298,17.7027027 82.7015707,19.4594595 81.3403141,20.8108108 L81.0680628,21.0810811 L80.7958115,20.8108108 C79.5706806,19.3243243 76.7120419,15.5405405 75.7591623,12.8378378 C75.6230366,12.2972973 75.486911,11.8918919 75.486911,11.4864865 C75.486911,10.6756757 75.486911,10.1351351 75.6230366,9.59459459 C75.7591623,7.83783784 73.1727749,2.83783784 72.3560209,2.56756757 C72.0837696,2.97297297 72.4921466,5.27027027 72.6282723,6.62162162 C72.7643979,7.83783784 72.9005236,8.91891892 72.9005236,9.45945946 C72.9005236,9.72972973 72.9005236,10.1351351 72.7643979,10.4054054 L72.7643979,11.0810811 L72.2198953,10.6756757 C71.2670157,10 69.0890052,8.78378378 68.1361257,8.78378378 C68.1361257,8.78378378 68,8.78378378 68,8.78378378 C68.1361257,9.72972973 72.0837696,13.9189189 73.1727749,14.4594595 L73.3089005,14.4594595 L73.3089005,14.5945946 C74.8062827,18.3783784 78.3455497,22.7027027 79.8429319,24.3243243 L79.9790576,24.4594595 L79.9790576,24.5945946 C79.9790576,26.6216216 80.6596859,28.9189189 81.0680628,30 C81.4764398,29.3243243 81.7486911,28.9189189 81.7486911,28.9189189 C81.7486911,28.9189189 82.4293194,28.2432432 83.1099476,27.4324324 C82.8376963,26.2162162 82.7015707,25.1351351 82.7015707,24.3243243 C82.7015707,24.1891892 82.7015707,24.1891892 82.7015707,24.0540541 L82.7015707,24.0540541 C82.7015707,23.6486486 82.8376963,23.3783784 83.1099476,23.1081081 C84.6073298,21.6216216 86.7853403,19.5945946 87.6020942,18.9189189 L87.7382199,18.9189189 L87.8743455,18.9189189 C89.0994764,18.6486486 93.4554974,12.5675676 94,11.0810811 C93.1832461,10.9459459 92.2303665,12.027027 91.5497382,12.8378378 Z" id="Shape"></path>
                    <path d="M86.6481481,31 C86.6481481,31 86.7777778,31 86.7777778,31 C87.4259259,30.4285714 92.3518519,24.5714286 93,23 C92.2222222,23.2857143 90.2777778,25 88.8518519,26 C87.4259259,27.1428571 86.3888889,28 86,28.1428571 L86.6481481,31 Z" id="Shape"></path>
                    <path d="M15.3207248,90.224924 C16.0046858,88.1732523 16.1414779,86.668693 15.8678936,85.8480243 C15.0471405,83.7963526 10.259414,78.7355623 7.38677804,76 C7.24998586,78.325228 6.97640149,80.6504559 5.60847963,82.0182371 C6.01885618,83.3860182 7.24998586,89.4042553 0,96.3799392 L0,102.12462 L0,115.93921 C0,115.93921 1.23112967,119.768997 3.41980465,121 C3.41980465,121 3.96697339,118.264438 3.41980465,116.896657 C2.87263591,115.528875 1.9150906,114.844985 1.9150906,114.844985 C1.9150906,114.844985 1.9150906,104.039514 3.69338902,99.2522796 L15.3207248,90.224924 Z" id="Shape"></path>
                    <path d="M94.6262204,40.0169492 C94.0794979,39.8813559 91.6192469,38.7966102 89.9790795,36.8983051 C89.432357,36.220339 88.748954,35.6779661 88.2022315,35.1355932 C87.9288703,34.8644068 87.6555091,34.7288136 87.3821478,34.4576271 C87.3821478,34.8644068 86.8354254,36.4915254 86.2887029,36.4915254 C86.0153417,36.4915254 86.2887029,35.4067797 86.1520223,33.5084746 C86.1520223,32.6949153 86.0153417,31.7457627 85.7419805,30.7966102 C85.7419805,30.6610169 85.7419805,30.5254237 85.6052999,30.3898305 C85.6052999,30.2542373 85.4686192,30.1186441 85.4686192,29.9830508 C85.3319386,29.440678 85.195258,28.8983051 84.9218968,28.3559322 C84.9218968,28.220339 84.7852162,28.0847458 84.7852162,27.9491525 C84.7852162,27.8135593 84.6485356,27.6779661 84.6485356,27.5423729 C84.511855,27.4067797 84.511855,27.2711864 84.3751743,27 C84.2384937,27.2711864 84.1018131,27.5423729 83.9651325,27.6779661 C83.8284519,27.8135593 83.6917713,27.9491525 83.5550907,28.220339 C83.41841,28.3559322 83.41841,28.3559322 83.2817294,28.4915254 C83.1450488,28.6271186 83.1450488,28.6271186 83.0083682,28.7627119 C83.0083682,28.7627119 83.0083682,28.7627119 83.0083682,28.7627119 C82.3249651,29.440678 81.5048815,30.1186441 80.958159,31.2033898 C80.958159,31.3389831 80.8214784,31.3389831 80.8214784,31.4745763 C80.4114365,32.2881356 80.2747559,33.1016949 80.4114365,34.1864407 C80.4114365,34.1864407 80.4114365,34.3220339 80.4114365,34.3220339 C80.4114365,34.3220339 80.4114365,34.4576271 80.4114365,34.4576271 C80.4114365,34.4576271 80.4114365,34.5932203 80.4114365,34.5932203 C80.4114365,34.7288136 80.4114365,34.8644068 80.2747559,35 C80.1380753,35.5423729 80.0013947,36.220339 79.7280335,36.7627119 C77.9511855,42.5932203 74.6708508,50.3220339 67.7001395,56.4237288 C67.7001395,56.4237288 67.7001395,56.4237288 67.7001395,56.4237288 C65.9232915,58.0508475 59.9093445,58.4576271 52.8019526,58.5932203 C51.1617852,58.5932203 49.6582985,58.7288136 48.8382148,58.7288136 C46.3779637,59 41.0474198,58.4576271 34.8967922,57.9152542 C27.1059972,57.2372881 17.5383543,56.2881356 14.804742,57.2372881 C13.5746165,57.6440678 2.50348675,61.9830508 2.50348675,69.7118644 C2.50348675,75.5423729 1.9567643,79.6101695 1,81.9152542 C2.09344491,81.779661 3.46025105,81.3728814 4.41701534,80.2881356 C7.28730823,77.8474576 6.19386332,73.1016949 6.46722455,72.9661017 C6.74058577,72.8305085 16.3082287,81.3728814 17.5383543,84.6271186 C18.0850767,85.9830508 17.6750349,88.1525424 16.9916318,90.4576271 C16.9916318,90.4576271 16.9916318,90.4576271 16.9916318,90.4576271 C16.0348675,93.0338983 14.6680614,96.0169492 13.1645746,98.4576271 L17.4016736,106.864407 L25.3291492,120.966102 C25.3291492,120.966102 29.4295676,121.372881 32.0264993,120.830508 C32.0264993,120.830508 30.5230126,118.389831 26.6959554,118.254237 C26.6959554,118.254237 18.3584379,105.779661 20.5453278,96.2881356 C21.2287308,95.2033898 22.0488145,93.9830508 23.0055788,92.7627119 C25.4658298,89.2372881 28.3361227,85.1694915 29.5662483,82.7288136 C29.8396095,82.3220339 30.6596932,84.3559322 30.5230126,84.7627119 C30.5230126,84.7627119 30.6596932,84.7627119 30.6596932,84.7627119 C30.7963738,84.7627119 48.2914923,89.3728814 55.125523,84.8983051 C55.125523,84.8983051 55.2622036,84.8983051 55.2622036,84.7627119 C55.2622036,84.7627119 56.3556485,80.9661017 56.3556485,81.5084746 C56.6290098,89.2372881 57.3124128,96.0169492 58.2691771,102.389831 C58.1324965,108.762712 58.679219,115.677966 59.6359833,123 L60.5927476,123 L60.8661088,123 L64.1464435,123 C63.7364017,121.237288 61.0027894,121.237288 61.0027894,121.237288 L60.7294282,122.050847 C60.7294282,119.20339 60.5927476,110.389831 60.7294282,102.661017 C61.9595537,95.4745763 62.916318,88.9661017 64.693166,86.1186441 C64.8298466,85.9830508 64.8298466,85.8474576 64.9665272,85.8474576 C65.2398884,85.7118644 65.5132497,85.5762712 65.7866109,85.3050847 C66.4700139,84.8983051 67.153417,84.3559322 67.8368201,83.9491525 C67.9735007,83.8135593 67.9735007,83.8135593 68.1101813,83.6779661 C79.3179916,75.9491525 85.3319386,64.9661017 87.1087866,49.5084746 C87.1087866,49.1016949 87.5188285,48.0169492 87.6555091,47.6101695 C88.748954,45.7118644 94.8995816,45.5762712 95.8563459,45.7118644 C96.8131102,45.8474576 98.0432357,45.3050847 98.5899582,45.0338983 L99,44.6271186 C98.8633194,44.220339 98.7266388,43.5423729 98.4532775,43.1355932 C98.7266388,42.7288136 96.539749,41.2372881 94.6262204,40.0169492 Z" id="Shape"></path>
                    <path d="M72,122 C71.7272727,120.636364 70.0909091,120.363636 69.2727273,120.227273 L67.7727273,86 C67.5,86.1363636 66.4090909,86.8181818 66.1363636,86.9545455 C64.9090909,88.8636364 63.9545455,91.3181818 63,93.7727273 C63.2727273,93.7727273 63.5454545,94.0454545 63.6818182,94.3181818 C63.8181818,94.5909091 66.9545455,111.5 68.1818182,122 L68.3181818,122 L69.2727273,122 L72,122 L72,122 Z" id="Shape"></path>
                </g>
            </g>
        </g>
    </g>
</svg>