<?xml version="1.0" encoding="UTF-8" standalone="no"?>
<svg width="20px" height="13px" viewBox="0 0 20 13" version="1.1" xmlns="http://www.w3.org/2000/svg" xmlns:xlink="http://www.w3.org/1999/xlink">
    <!-- Generator: Sketch 47.1 (45422) - http://www.bohemiancoding.com/sketch -->
    <title>email copy</title>
    <desc>Created with Sketch.</desc>
    <defs></defs>
    <g id="Symbols" stroke="none" stroke-width="1" fill="none" fill-rule="evenodd">
        <g id="Footer" transform="translate(-646.000000, -128.000000)" fill-rule="nonzero" fill="#000000">
            <g id="email-copy" transform="translate(646.000000, 128.000000)">
                <path d="M19.5833333,12.5 L0.416666667,12.5 C0.186666667,12.5 0,12.3125 0,12.0833333 L0,0.416666667 C0,0.1875 0.186666667,0 0.416666667,0 L19.5833333,0 C19.8125,0 20,0.1875 20,0.416666667 L20,12.0833333 C20,12.3125 19.8125,12.5 19.5833333,12.5 Z M0.833333333,11.6666667 L19.1666667,11.6666667 L19.1666667,0.833333333 L0.833333333,0.833333333 L0.833333333,11.6666667 Z" id="Shape"></path>
                <path d="M10,8.40333333 C9.91,8.40333333 9.81833333,8.37416667 9.74166667,8.31416667 L2.24166667,2.39166667 C2.06083333,2.2475 2.03083333,1.98666667 2.1725,1.80583333 C2.315,1.62583333 2.5775,1.595 2.75833333,1.73666667 L10.2583333,7.66083333 C10.4391667,7.80416667 10.4683333,8.06416667 10.3275,8.245 C10.2441667,8.35 10.1225,8.40333333 10,8.40333333 L10,8.40333333 Z" id="Shape"></path>
                <path d="M10,8.40333333 C9.87666667,8.40333333 9.755,8.35 9.6725,8.24583333 C9.53,8.06416667 9.56083333,7.805 9.74166667,7.66166667 L17.2416667,1.7375 C17.4233333,1.59583333 17.6841667,1.62666667 17.8275,1.80666667 C17.9708333,1.98833333 17.94,2.24833333 17.7591667,2.39166667 L10.2591667,8.31416667 C10.1816667,8.37416667 10.0908333,8.40333333 10,8.40333333 L10,8.40333333 Z" id="Shape"></path>
                <path d="M2.5,10.6458333 C2.35583333,10.6458333 2.215,10.57 2.13833333,10.4375 C2.02333333,10.2383333 2.0925,9.98333333 2.2925,9.86666667 L8.12583333,6.51583333 C8.32583333,6.4 8.58,6.46916667 8.695,6.67083333 C8.81,6.87 8.74083333,7.125 8.54083333,7.24083333 L2.7075,10.5916667 C2.64166667,10.6291667 2.57083333,10.6458333 2.5,10.6458333 Z" id="Shape"></path>
                <path d="M17.5,10.6458333 C17.43,10.6458333 17.3583333,10.6283333 17.2925,10.5916667 L11.4591667,7.24083333 C11.26,7.12416667 11.1916667,6.87166667 11.305,6.67 C11.4191667,6.47 11.6725,6.40083333 11.8741667,6.51416667 L17.7075,9.865 C17.9066667,9.98 17.975,10.2341667 17.8616667,10.435 C17.7841667,10.5733333 17.6441667,10.6458333 17.5,10.6458333 Z" id="Shape"></path>
            </g>
        </g>
    </g>
</svg>