<?xml version="1.0" encoding="UTF-8" standalone="no"?>
<svg width="23px" height="23px" viewBox="0 0 23 23" version="1.1" xmlns="http://www.w3.org/2000/svg" xmlns:xlink="http://www.w3.org/1999/xlink">
    <!-- Generator: Sketch 47.1 (45422) - http://www.bohemiancoding.com/sketch -->
    <title>Shape</title>
    <desc>Created with Sketch.</desc>
    <defs></defs>
    <g id="Symbols" stroke="none" stroke-width="1" fill="none" fill-rule="evenodd">
        <g id="Footer" transform="translate(-646.000000, -212.000000)" fill-rule="nonzero" fill="#FFFFFF">
            <g id="facebook-copy" transform="translate(646.000000, 212.000000)">
                <path d="M20.7517614,0 L1.74823864,0 C0.784829545,0 0,0.784772727 0,1.74818182 L0,20.7517614 C0,21.7152273 0.784829545,22.5 1.74823864,22.5 L11.4109091,22.5 L15.8764773,22.5 L20.7518182,22.5 C21.7151705,22.5 22.5,21.7152273 22.5,20.7517614 L22.5,1.74818182 C22.5,0.784772727 21.7151705,0 20.7517614,0 Z M12.5568182,21.3636364 L12.5568182,13.0681818 L9.77272727,13.0681818 L9.77272727,11.0227273 L12.5568182,11.0227273 L12.5568182,8.05704545 C12.5568182,6.88517045 12.8914205,5.93034091 13.5334659,5.29573864 C14.1503409,4.68602273 15.0575,4.36375 16.1394886,4.36375 C16.8998864,4.36375 17.5567614,4.40107955 18.068125,4.43761364 L18.068125,6.23806818 L16.9054545,6.23857955 C14.7395455,6.23857955 14.7158523,7.8475 14.7158523,8.37625 L14.7158523,11.0227273 L17.8544886,11.0227273 L17.5853409,13.0681818 L14.7159091,13.0681818 L14.7159091,21.3636364 L12.5568182,21.3636364 Z M21.3636364,20.7517614 C21.3636364,21.0885795 21.0885227,21.3636364 20.7517614,21.3636364 L15.8522727,21.3636364 L15.8522727,14.2045455 L18.5846023,14.2045455 L19.146875,9.88636364 L15.8522727,9.88636364 L15.8522727,8.37625 C15.8522727,7.98409091 15.9163068,7.73977273 16.0277273,7.60738636 C16.1576136,7.453125 16.4667045,7.37494318 16.911875,7.37494318 L19.2045455,7.37392045 L19.2045455,3.42482955 L18.6995455,3.35931818 C18.4418182,3.32505682 17.4119886,3.22738636 16.1313068,3.22738636 C14.7439205,3.22738636 13.5715909,3.663125 12.7375,4.48755682 C11.8746591,5.34039773 11.4204545,6.57471591 11.4204545,8.05704545 L11.4204545,9.88636364 L8.63636364,9.88636364 L8.63636364,14.2045455 L11.4204545,14.2045455 L11.4204545,21.3636364 L1.74823864,21.3636364 C1.41142045,21.3636364 1.13636364,21.0885795 1.13636364,20.7517614 L1.13636364,1.74818182 C1.13636364,1.41136364 1.41142045,1.13636364 1.74823864,1.13636364 L20.7517614,1.13636364 C21.0885227,1.13636364 21.3636364,1.41136364 21.3636364,1.74818182 L21.3636364,20.7517614 Z" id="Shape"></path>
            </g>
        </g>
    </g>
</svg>