<?xml version="1.0" encoding="UTF-8" standalone="no"?>
<svg width="140px" height="65px" viewBox="0 0 140 65" version="1.1" xmlns="http://www.w3.org/2000/svg" xmlns:xlink="http://www.w3.org/1999/xlink">
    <!-- Generator: Sketch 47.1 (45422) - http://www.bohemiancoding.com/sketch -->
    <title>fox</title>
    <desc>Created with Sketch.</desc>
    <defs></defs>
    <g id="Page-1" stroke="none" stroke-width="1" fill="none" fill-rule="evenodd">
        <g id="Who-We-Are" transform="translate(-643.000000, -3421.000000)" fill-rule="nonzero" fill="#DA9127">
            <g id="team-block" transform="translate(76.000000, 3421.000000)">
                <g id="team-group-block">
                    <g id="fox" transform="translate(567.000000, 0.000000)">
                        <path d="M103,41.2774566 L103.617978,44.6763006 C103.865169,45.7687861 104.483146,46.7398844 105.348315,47.4682081 L121.168539,59 L125,59 C125,59 124.258427,57.1791908 121.786517,57.0578035 C119.314607,56.8150289 115.483146,51.716763 115.483146,51.716763 C113.382022,48.5606936 112.146067,46.0115607 111.404494,44.433526 C111.280899,44.1907514 111.157303,43.9479769 111.033708,43.7052023 C110.044944,41.7630058 110.044944,39.4566474 110.044944,38 C108.438202,38.9710983 105.842697,40.3063584 103,41.2774566 Z" id="Shape"></path>
                        <path d="M135.197889,22.4011299 C134.212841,21.1770245 133.720317,19.5856874 133.227792,17.6271186 C132.98153,16.8926554 132.858399,16.1581921 132.612137,15.3013183 C131.996482,13.0979284 128.056288,11.6290019 126.578716,11.2617702 C126.209323,11.1393597 126.086192,10.8945386 125.963061,10.6497175 C125.716799,9.30320151 122.515391,3.42749529 120.422164,0 C120.422164,0 120.422164,0 120.422164,0 C120.422164,0 120.422164,0 120.299033,0 C120.175901,0 119.560246,0 118.328936,1.71374765 C116.358839,4.16195857 117.343887,11.5065913 117.836412,14.0772128 C117.959543,14.4444444 115.989446,12.9755179 115.866315,11.2617702 L112.418646,13.220339 C112.418646,13.220339 112.418646,13.220339 112.418646,13.220339 C110.079156,14.3220339 100.351803,16.1581921 97.5197889,15.6685499 C94.9340369,15.1789077 78.5576077,13.8323917 71.292876,13.3427495 C64.6437995,12.8531073 54.1776605,14.8116761 53.4388742,14.9340866 C52.700088,15.1789077 41.9876869,18.3615819 37.3087071,22.5235405 C37.062445,22.7683616 16.2532982,41.007533 4.67897977,41.007533 C4.43271768,41.007533 4.06332454,41.007533 3.81706245,41.007533 C0.861917326,40.7627119 0.123131047,41.1299435 0,41.252354 C0.123131047,41.7419962 1.47757256,42.9661017 2.83201407,43.8229755 C2.95514512,43.8229755 2.95514512,43.9453861 3.07827617,44.0677966 C3.32453826,44.3126177 8.49604222,51.2900188 20.8091469,48.1073446 C26.2269129,46.7608286 31.1521548,43.700565 35.0923483,39.5386064 C41.0026385,33.2956685 45.6816183,30.2354049 48.8830255,30.480226 C48.8830255,30.480226 48.8830255,30.480226 48.8830255,30.480226 C48.3905013,29.5009416 48.0211082,28.5216573 47.7748461,27.4199623 L47.2823219,24.9717514 C47.1591909,24.6045198 49.6218118,30.7250471 52.823219,33.0508475 C56.0246262,35.2542373 57.7484609,37.212806 58.9797713,38.4369115 C59.1029024,38.4369115 59.2260334,38.559322 59.2260334,38.559322 C59.3491645,38.6817326 59.4722955,38.8041431 59.4722955,38.9265537 C61.3192612,40.7627119 61.5655233,41.1299435 61.6886544,41.3747646 L61.6886544,41.4971751 C64.1512753,47.1280603 63.6587511,51.779661 62.4274406,56.1864407 C62.7968338,56.6760829 64.2744063,58.0225989 66.121372,59.613936 C67.3526825,61.0828625 69.0765172,62.6741996 70.5540897,63.8983051 L71.9085312,65 L75.6024626,65 C75.6024626,65 76.587511,63.2862524 71.292876,63.0414313 C70.0615655,61.5725047 67.4758135,58.0225989 66.4907652,55.0847458 C67.4758135,52.2693032 69.1996482,47.6177024 70.6772208,44.3126177 C72.4010554,40.3954802 73.6323659,34.6421846 73.6323659,34.519774 C73.6323659,34.2749529 73.878628,34.1525424 74.001759,34.0301318 C74.2480211,33.9077213 74.4942832,33.9077213 74.6174142,34.0301318 L87.05365,38.8041431 C87.05365,38.8041431 89.5162709,33.9077213 89.3931398,34.3973635 L87.299912,46.393597 C86.9305189,48.7193974 87.299912,51.0451977 88.5312225,53.0037665 C89.1468777,53.9830508 89.5162709,54.9623352 89.5162709,55.819209 C88.4080915,56.4312618 85.5760774,58.26742 83.2365875,59.3691149 C82.6209323,59.3691149 81.759015,59.2467043 81.2664908,59.0018832 C80.2814424,58.6346516 78.9270009,60.1035782 78.9270009,60.1035782 L80.2814424,60.4708098 C80.2814424,60.4708098 82.005277,61.0828625 84.3447669,60.4708098 C86.6842568,59.8587571 90.9938434,57.9001883 91.2401055,57.6553672 L91.2401055,57.6553672 C91.4863676,52.3917137 93.0870712,47.740113 94.4415128,43.4557439 C94.6877748,42.5988701 94.9340369,41.8644068 95.180299,41.1299435 C95.3034301,40.7627119 95.6728232,40.5178908 96.0422164,40.6403013 C103.676341,41.8644068 111.80299,35.2542373 111.926121,35.2542373 C111.926121,35.2542373 111.926121,35.2542373 111.926121,35.2542373 C114.14248,33.6629002 120.422164,28.1544256 120.545295,28.0320151 C120.791557,27.787194 121.16095,27.787194 121.530343,27.9096045 C121.530343,27.9096045 123.992964,29.2561205 132.242744,30.9698682 C134.828496,31.4595104 136.921724,31.2146893 138.276165,30.2354049 C139.630607,29.13371 140,27.5423729 140,26.8079096 C139.261214,26.0734463 136.306069,23.6252354 135.197889,22.4011299 Z" id="Shape"></path>
                        <path d="M36.9361702,48.1881919 C36.5691489,48.4391144 35.2234043,49.8191882 34,52.4538745 L34,62.3653137 L34,65 L39.0159574,65 C38.7712766,63.3690037 36.8138298,63.3690037 35.712766,62.9926199 C35.712766,62.9926199 35.712766,62.8671587 35.712766,62.4907749 C35.712766,60.4833948 35.8351064,52.9557196 40.9734043,49.9446494 C43.6648936,49.0664207 46.9680851,48.0627306 48.3138298,47.3099631 C51.0053191,45.804428 55.4095745,40.4095941 57,38.5276753 C55.7765957,37.2730627 53.9414894,35.6420664 51.1276596,33.2583026 C50.5159574,32.6309963 49.537234,31 47.9468085,31 C47.0904255,31 45.5,31.2509225 42.9308511,33.0073801 C42.9308511,33.1328413 43.0531915,33.1328413 43.0531915,33.2583026 C42.9308511,33.8856089 43.9095745,44.1734317 36.9361702,48.1881919 Z" id="Shape"></path>
                    </g>
                </g>
            </g>
        </g>
    </g>
</svg>