<?xml version="1.0" encoding="UTF-8" standalone="no"?>
<svg width="185px" height="185px" viewBox="0 0 185 185" version="1.1" xmlns="http://www.w3.org/2000/svg" xmlns:xlink="http://www.w3.org/1999/xlink">
    <!-- Generator: Sketch 48.1 (47250) - http://www.bohemiancoding.com/sketch -->
    <title>fire icon</title>
    <desc>Created with Sketch.</desc>
    <defs></defs>
    <g id="Home" stroke="none" stroke-width="1" fill="none" fill-rule="evenodd" transform="translate(-188.000000, -3686.000000)">
        <g id="Our-impact" transform="translate(0.000000, 3081.000000)">
            <g id="Response-Time" transform="translate(0.000000, 500.000000)">
                <g id="Group-11">
                    <g id="Detection-Body" transform="translate(190.000000, 110.000000)">
                        <g id="fire-icon" transform="translate(3.000000, 0.000000)">
                            <circle id="Oval-4" stroke="#698E87" stroke-width="9" cx="87.5" cy="87.5" r="87.5"></circle>
                            <g id="Group-19" transform="translate(58.000000, 50.000000)" fill="#698E87" fill-rule="nonzero">
                                <path d="M50.230305,23.2870167 L53.4799084,18.6948243 C54.0696126,17.8608295 53.872733,16.7074822 53.0402003,16.117249 L48.1392382,12.6445826 C47.3065497,12.0554404 46.1526859,12.2526004 45.5628259,13.0853483 L42.2322277,17.7919404 C39.7738809,16.6393724 37.1343861,15.8136381 34.3684149,15.3739634 L34.3684149,13.4603421 C34.3684149,12.2349885 35.3707251,11.2321998 36.5953037,11.2321998 L37.8236204,11.2321998 C39.048822,11.2321998 40.0509764,10.2295669 40.0509764,9.00530439 L40.0509764,2.22860983 C40.0509764,1.00387971 39.048822,0 37.8236204,0 L21.546788,0 C20.3228325,0 19.3203665,1.00387971 19.3203665,2.22860983 L19.3203665,9.00514854 C19.3203665,10.2294111 20.3228325,11.2320439 21.546788,11.2320439 L22.7765065,11.2320439 C24.0006178,11.2320439 25.0030838,12.2348326 25.0030838,13.4601862 L25.0030838,15.3738075 C22.036962,15.8457448 19.2183442,16.7595387 16.6123377,18.0431831 L13.3124241,13.3819456 C12.7230314,12.5481067 11.5699463,12.3520377 10.7369463,12.9411799 L5.83660733,16.4140021 C5.00314005,17.0043912 4.80626047,18.1577385 5.3965877,18.9922008 L8.72375916,23.694273 C3.33745157,29.0733912 0,36.5081172 0,44.7081046 C0,61.0862594 13.3172526,74.4119404 29.6855157,74.4119404 C46.0542461,74.4119404 59.3707199,61.0862594 59.3707199,44.7081046 C59.3707199,36.2986444 55.8606872,28.6960596 50.230305,23.2870167 Z M29.6855157,67.2834749 C17.2456545,67.2834749 7.12457984,57.1553713 7.12457984,44.7079487 C7.12457984,32.2597469 17.2456545,22.1322667 29.6855157,22.1322667 C42.1255327,22.1322667 52.2469188,32.2597469 52.2469188,44.7079487 C52.2469188,57.1553713 42.1255327,67.2834749 29.6855157,67.2834749 Z" id="Shape"></path>
                                <g id="fire" transform="translate(16.000000, 26.000000)">
                                    <path d="M7.52893734,30.4042694 C5.47601144,26.1878407 6.56926884,23.7717829 8.14709645,21.4955088 C9.87497335,19.0026612 10.3202697,16.5350682 10.3202697,16.5350682 C10.3202697,16.5350682 11.6785679,18.277975 11.1352024,21.0039285 C13.5348357,18.3673066 13.9876981,14.1664981 13.6253389,12.5576742 C19.0494065,16.2991119 21.3675465,24.4003535 18.2434836,30.4042694 C34.859506,21.1247285 22.3765961,7.23967912 20.2033651,5.67560652 C20.9277947,7.23962211 21.0651955,9.88736056 19.6017819,11.1723218 C17.124525,1.90024902 10.9994188,0 10.9994188,0 C11.7238484,4.78166343 8.37349875,10.0103839 5.14276112,13.917373 C5.0292712,12.010682 4.90867732,10.6949935 3.8928703,8.87039412 C3.66485084,12.3340887 0.983081023,15.1575259 0.256861013,18.6279474 C-0.72683385,23.3276903 0.99370807,26.7688096 7.52893734,30.4042694 Z" id="Shape"></path>
                                </g>
                            </g>
                        </g>
                    </g>
                </g>
            </g>
        </g>
    </g>
</svg>