<?xml version="1.0" encoding="UTF-8" standalone="no"?>
<svg width="185px" height="185px" viewBox="0 0 185 185" version="1.1" xmlns="http://www.w3.org/2000/svg" xmlns:xlink="http://www.w3.org/1999/xlink">
    <!-- Generator: Sketch 48.1 (47250) - http://www.bohemiancoding.com/sketch -->
    <title>fire reporting icon</title>
    <desc>Created with Sketch.</desc>
    <defs></defs>
    <g id="Home" stroke="none" stroke-width="1" fill="none" fill-rule="evenodd" transform="translate(-708.000000, -4191.000000)">
        <g id="Our-impact" transform="translate(0.000000, 3081.000000)">
            <g id="Accuracy" transform="translate(0.000000, 1000.000000)">
                <g id="Accuracy-Block" transform="translate(480.000000, 0.000000)">
                    <g id="Accuracy-BLock" transform="translate(229.000000, 107.000000)">
                        <g id="fire-reporting-icon" transform="translate(4.000000, 8.000000)">
                            <circle id="Oval-4-Copy-3" stroke="#FFFFFF" stroke-width="9" cx="87.5" cy="87.5" r="87.5"></circle>
                            <path d="M120.965569,62.7084164 C120.867137,62.3485713 120.575717,62.0824582 120.165938,61.9780869 L115.584676,60.8114182 C115.467252,60.7815209 115.28657,60.5994435 115.256879,60.481201 L114.09829,55.8682605 C113.970301,55.3582553 113.58727,55.0288462 113.122256,55.0288462 C112.843141,55.0288462 112.565497,55.1538223 112.340412,55.3804763 L108.235265,59.5141171 C107.883127,59.86871 107.54637,60.5073275 107.451816,60.9994212 L106.477788,66.066343 C106.434991,66.2892262 106.440742,66.5329836 106.48715,66.7728355 L103.78373,69.4864884 C99.4512246,65.5754614 93.7314344,63.1929685 87.4686601,63.1929685 C73.9764389,63.1926991 63,74.245818 63,87.8319938 C63,101.41817 73.9764389,112.471154 87.4685263,112.471154 C100.960614,112.471154 111.937053,101.418035 111.937053,87.8319938 C111.937053,82.0040371 109.915975,76.6432596 106.544123,72.4200616 L109.316552,69.637187 C109.452432,69.6651989 109.590184,69.6808209 109.725663,69.6808209 C109.833992,69.6808209 109.939112,69.6709898 110.038213,69.6517316 L115.069911,68.6710458 C115.55873,68.5756976 116.192925,68.2364573 116.544929,67.881999 L120.649943,63.7483583 C120.949119,63.4472303 121.064002,63.0682616 120.965569,62.7084164 Z M95.3504903,87.8319938 C95.3504903,92.2083146 91.8146735,95.7687888 87.4685263,95.7687888 C83.1225129,95.7687888 79.5866961,92.2083146 79.5866961,87.8319938 C79.5866961,83.455673 83.1225129,79.8951989 87.4685263,79.8951989 C88.2097131,79.8951989 88.9264255,80.0010515 89.6070281,80.1944414 L88.5068833,83.5550614 C88.1738708,83.4730458 87.8264144,83.4286038 87.4686601,83.4286038 C85.0575962,83.4286038 83.0960324,85.4038469 83.0960324,87.8318591 C83.0960324,90.2598714 85.0575962,92.2351144 87.4686601,92.2351144 C89.8084405,92.2351144 91.7246665,90.3750165 91.8360719,88.0462579 L95.2850914,86.8262588 C95.3265508,87.1559374 95.3504903,87.4911375 95.3504903,87.8319938 Z M96.721191,76.5755193 C94.2072812,74.4766468 90.9817411,73.2131485 87.4685263,73.2131485 C79.4636553,73.2131485 72.9510547,79.7710307 72.9510547,87.8318591 C72.9510547,95.8926876 79.4635216,102.45057 87.4685263,102.45057 C95.473531,102.45057 101.986132,95.8926876 101.986132,87.8318591 C101.986132,84.7636133 101.041794,81.9135371 99.4314311,79.5595947 L102.152772,76.8280304 C104.430095,79.9016631 105.779799,83.7108776 105.779799,87.8318591 C105.779799,97.9991017 97.5654913,106.270693 87.4686601,106.270693 C77.3718288,106.270693 69.1573873,97.9991017 69.1573873,87.8319938 C69.1573873,77.6648859 77.371695,69.3931602 87.4685263,69.3931602 C92.0299948,69.3931602 96.2069609,71.0816853 99.4161848,73.8702161 L96.721191,76.5755193 Z" id="Shape" fill="#FFFFFF" fill-rule="nonzero"></path>
                            <g id="Accuracy-icon" transform="translate(65.000000, 65.000000)">
                                <g id="bullseye-(1)-copy"></g>
                            </g>
                        </g>
                    </g>
                </g>
            </g>
        </g>
    </g>
</svg>