<?xml version="1.0" encoding="UTF-8" standalone="no"?>
<svg width="57px" height="35px" viewBox="0 0 57 35" version="1.1" xmlns="http://www.w3.org/2000/svg" xmlns:xlink="http://www.w3.org/1999/xlink">
    <!-- Generator: Sketch 48.1 (47250) - http://www.bohemiancoding.com/sketch -->
    <title>cloud icon</title>
    <desc>Created with Sketch.</desc>
    <defs></defs>
    <g id="Artboard-4-Copy" stroke="none" stroke-width="1" fill="none" fill-rule="evenodd" transform="translate(-271.000000, -82.000000)">
        <g id="cloud-icon" transform="translate(273.000000, 84.000000)">
            <path d="M45.7416525,15.2399995 C45.672643,15.2399995 45.6020828,15.2407788 45.5307471,15.2438962 C43.8768458,6.50359478 36.133052,0 27.2230756,0 C19.5700022,0 12.6760329,4.75085845 9.87843526,11.8849395 C9.6915669,11.8724701 9.51245241,11.8662354 9.34031641,11.8662354 C4.18941803,11.8662354 0,16.0777903 0,21.2541686 C0,25.553789 2.89297032,29.286829 7.03974205,30.3443938 C7.59879635,30.5423462 8.17568456,30.6421018 8.75567433,30.6421018 L45.9230931,30.6421018 C46.1805217,30.6421018 46.4441534,30.6195009 46.7302714,30.5727405 C50.5350973,30.0778594 53.404806,26.7976161 53.404806,22.940661 C53.4040306,18.6940357 49.9667383,15.2399995 45.7416525,15.2399995 Z M46.5069598,29.0304261 C46.2805467,29.0670551 46.0952291,29.0834212 45.9215424,29.0834212 L8.75412355,29.0834212 C8.34006669,29.0834212 7.92678521,29.0093839 7.52513455,28.8644266 L7.45069736,28.8418257 C3.9761865,27.9705233 1.54922399,24.8500447 1.54922399,21.2549479 C1.54922399,16.938182 5.04389492,13.4256953 9.33876564,13.4256953 C9.63031129,13.4256953 9.93581392,13.4467375 10.2994706,13.4919392 L10.9159036,13.5683146 L11.1252582,12.980692 C13.5514453,6.14899494 20.0205022,1.55945993 27.2223002,1.55945993 C35.6135425,1.55945993 42.8765961,7.85107415 44.1179913,16.193912 L44.2304225,16.9459754 L44.9809975,16.8524546 C45.2717677,16.8166049 45.5136886,16.8002388 45.7416525,16.8002388 C49.111486,16.8002388 51.8532558,19.5552067 51.8532558,22.9422197 C51.8532558,26.0167171 49.5643123,28.6329625 46.5069598,29.0304261 Z" id="Shape-Copy-8" stroke="#7D9C96" stroke-width="3" fill-rule="nonzero"></path>
            <g id="Group-2" transform="translate(18.000000, 13.000000)" fill="#7D9C96">
                <path d="M6,8 L0,8 L8.5,0 L17,8 L12,8 L12,16 L6,16 L6,8 Z" id="Combined-Shape"></path>
            </g>
        </g>
    </g>
</svg>