<?xml version="1.0" encoding="UTF-8" standalone="no"?>
<svg width="97px" height="86px" viewBox="0 0 97 86" version="1.1" xmlns="http://www.w3.org/2000/svg" xmlns:xlink="http://www.w3.org/1999/xlink">
    <!-- Generator: Sketch 48.1 (47250) - http://www.bohemiancoding.com/sketch -->
    <title>plane</title>
    <desc>Created with Sketch.</desc>
    <defs></defs>
    <g id="Artboard-4-Copy-3" stroke="none" stroke-width="1" fill="none" fill-rule="evenodd" transform="translate(-546.000000, -63.000000)">
        <g id="plane" transform="translate(548.000000, 47.000000)">
            <rect id="Rectangle-2-Copy-69" fill="#D8D8D8" transform="translate(52.500000, 99.500000) scale(-1, 1) translate(-52.500000, -99.500000) " x="10" y="97" width="85" height="5"></rect>
            <g id="airplane-up-second-copy-13" transform="translate(48.028053, 35.948591) rotate(21.000000) translate(-48.028053, -35.948591) translate(5.028053, 13.948591)" fill="#698E87" fill-rule="nonzero">
                <g id="Group">
                    <path d="M73.1,1.7 L52.8,10.5 L32.7,5.7 C31.8,5.5 30.9,5.6 30,6 L25.3,8.3 C23.9,9 23,10.4 23.1,11.9 C23.1,13.5 24,14.8 25.4,15.5 L35,19.9 L19.7,27.7 L7,23.3 C5.8,22.9 4.4,23 3.3,23.5 C1.8,24.2 0.7,25.7 0.5,27.3 C0.3,29 0.9,30.6 2.2,31.7 L14.6,42.1 C15.7,43 17.2,43.3 18.6,42.8 L54.4570275,29.4397204 L80.9,18 C83.1,16.9 84.7,15.1 85.5,12.8 C86.3,10.5 86.1,8.1 85.1,5.9 C82.9,1.4 77.5,-0.4 73.1,1.7 Z M81.7,11.5 C81.3,12.8 80.4,13.8 79.2,14.4 L17.1,39.1 L4.8,28.7 C4.5,28.4 4.4,28.1 4.5,27.9 C4.6,27.7 4.6,27.4 5,27.2 C5.2,27.1 5.5,27.1 5.7,27.2 L18.4,31.6 C19.4,31.9 20.6,31.9 21.5,31.4 L40.5,21.7 C41.2,21.4 41.6,20.6 41.6,19.9 C41.6,19.1 41.1,18.4 40.4,18.1 L27,12 L31.7,9.7 L52.5,14.6 C52.9,14.7 53.4,14.7 53.8,14.5 L74.8,5.4 C77.3,4.2 80.3,5.2 81.5,7.7 C82.1,8.8 82.2,10.2 81.7,11.5 Z" id="Shape"></path>
                </g>
            </g>
            <path d="M26.543791,52 L3,94" id="Line-Copy-9" stroke="#8CC5D3" stroke-width="2" stroke-linecap="square"></path>
            <path d="M33.5024989,52 L14,89" id="Line-Copy-10" stroke="#8CC5D3" stroke-width="2" stroke-linecap="square"></path>
            <path d="M19.8781236,51 L0,86" id="Line-Copy-11" stroke="#8CC5D3" stroke-width="2" stroke-linecap="square"></path>
        </g>
    </g>
</svg>