<?xml version="1.0" encoding="UTF-8" standalone="no"?>
<svg width="62px" height="108px" viewBox="0 0 62 108" version="1.1" xmlns="http://www.w3.org/2000/svg" xmlns:xlink="http://www.w3.org/1999/xlink">
    <!-- Generator: Sketch 48.1 (47250) - http://www.bohemiancoding.com/sketch -->
    <title>tower icon</title>
    <desc>Created with Sketch.</desc>
    <defs></defs>
    <g id="Artboard-Copy-6" stroke="none" stroke-width="1" fill="none" fill-rule="evenodd" transform="translate(-10.000000, -25.000000)">
        <g id="tower-icon" transform="translate(10.000000, 25.000000)">
            <g id="7">
                <polygon id="Rectangle-2-Copy-43" fill="#D8D8D8" transform="translate(13.500000, 77.500000) rotate(-79.000000) translate(-13.500000, -77.500000) " points="-17 75 44 75 44 80 -16.1644785 79.9311745"></polygon>
                <polygon id="Rectangle-2-Copy-44" fill="#D8D8D8" transform="translate(49.500000, 77.500000) scale(-1, 1) rotate(-79.000000) translate(-49.500000, -77.500000) " points="19 75 80 75 80 80 19.7491775 79.4869732"></polygon>
                <rect id="Rectangle-2-Copy-45" fill="#D8D8D8" transform="translate(30.500000, 63.500000) scale(-1, 1) rotate(-180.000000) translate(-30.500000, -63.500000) " x="15" y="61" width="31" height="5"></rect>
                <rect id="Rectangle-2-Copy-46" fill="#D8D8D8" transform="translate(30.500000, 43.500000) scale(-1, 1) rotate(-180.000000) translate(-30.500000, -43.500000) " x="0" y="41" width="61" height="5"></rect>
                <rect id="Rectangle-2-Copy-47" fill="#D8D8D8" transform="translate(30.500000, 6.500000) scale(-1, 1) rotate(-180.000000) translate(-30.500000, -6.500000) " x="0" y="4" width="61" height="5"></rect>
                <rect id="Rectangle-2-Copy-48" fill="#D8D8D8" transform="translate(15.500000, 2.500000) scale(-1, 1) rotate(-180.000000) translate(-15.500000, -2.500000) " x="9" y="0" width="13" height="5"></rect>
                <rect id="Rectangle-2-Copy-66" fill="#D8D8D8" transform="translate(2.500000, 25.500000) scale(-1, 1) rotate(-270.000000) translate(-2.500000, -25.500000) " x="-18" y="23" width="41" height="5"></rect>
                <rect id="Rectangle-2-Copy-67" fill="#D8D8D8" transform="translate(59.000000, 26.500000) scale(-1, 1) rotate(-270.000000) translate(-59.000000, -26.500000) " x="39" y="24" width="40" height="5"></rect>
                <rect id="Rectangle-2-Copy-68" fill="#D8D8D8" transform="translate(31.000000, 80.500000) scale(-1, 1) rotate(-180.000000) translate(-31.000000, -80.500000) " x="12" y="78" width="38" height="5"></rect>
                <rect id="Rectangle-2-Copy-69" fill="#D8D8D8" transform="translate(24.500000, 97.500000) scale(-1, 1) rotate(-180.000000) translate(-24.500000, -97.500000) " x="9" y="95" width="31" height="5"></rect>
                <circle id="Oval-5-Copy-6" fill="#D8D8D8" cx="45.5" cy="97.5" r="2.5"></circle>
                <circle id="Oval-5-Copy-8" fill="#D8D8D8" cx="50" cy="15" r="4"></circle>
                <g id="Group-5-Copy" transform="translate(20.000000, 15.000000)">
                    <circle id="Oval-5-Copy-2" stroke="#D8D8D8" stroke-width="4" cx="10.5" cy="10.5" r="10.5"></circle>
                    <circle id="Oval-5-Copy-3" fill="#D8D8D8" cx="10.5" cy="10.5" r="4.5"></circle>
                </g>
            </g>
        </g>
    </g>
</svg>