<?xml version="1.0" encoding="UTF-8" standalone="no"?>
<svg width="185px" height="185px" viewBox="0 0 185 185" version="1.1" xmlns="http://www.w3.org/2000/svg" xmlns:xlink="http://www.w3.org/1999/xlink">
    <!-- Generator: Sketch 48.1 (47250) - http://www.bohemiancoding.com/sketch -->
    <title>acres saved icon</title>
    <desc>Created with Sketch.</desc>
    <defs></defs>
    <g id="Home" stroke="none" stroke-width="1" fill="none" fill-rule="evenodd" transform="translate(-188.000000, -4686.000000)">
        <g id="Our-impact" transform="translate(0.000000, 3081.000000)">
            <g id="Acres-Block" transform="translate(0.000000, 1500.000000)">
                <g id="Acres-Saved">
                    <g id="Block" transform="translate(190.000000, 110.000000)">
                        <g id="acres-saved-icon" transform="translate(3.000000, 0.000000)">
                            <circle id="Oval" stroke="#698E87" stroke-width="9" cx="87.5" cy="87.5" r="87.5"></circle>
                            <g id="Group-27" transform="translate(44.500000, 57.500000)" fill="#698E87" fill-rule="nonzero">
                                <g id="christmas-tree-copy" transform="translate(0.346939, 0.071429)">
                                    <g id="Group-26">
                                        <polygon id="Shape" points="85.7244898 49.6364966 75.9544052 30.6447642 81.5288883 32.7542455 72.5178428 15.2377259 75.4827487 16.7218224 67.6122449 0 59.7418733 16.7218224 62.7070435 15.2375953 53.6957337 32.7542455 59.270349 30.6446336 49.5 49.6364966 65.5137171 44.094389 65.5137171 56.6326531 69.7110371 56.6326531 69.7110371 44.0941277"></polygon>
                                        <g id="pine-copy" transform="translate(0.010204, 7.653061)">
                                            <polygon id="Shape" points="16.6295564 0 8.05119736 15.1133787 25.2079155 15.1133787"></polygon>
                                            <polygon id="Shape" points="25.0854047 17.6485261 7.98201303 17.6485261 3.64220833 25.3514739 29.4252094 25.3514739"></polygon>
                                            <polygon id="Shape" points="27.9892434 27.8866213 5.17402191 27.8866213 0 37.0192685 12.4326449 37.0192685 12.4326449 43.877551 20.7306204 43.877551 20.7306204 37.0192685 33.1632653 37.0192685"></polygon>
                                        </g>
                                        <path d="M65.3049156,19.8660108 C65.3049156,15.5589955 62.0222884,12.0164725 57.8121471,11.581365 C56.6305327,8.40863047 53.5724413,6.14285874 49.9738796,6.14285874 C48.3986514,6.14285874 46.9305704,6.58441151 45.6731124,7.33784097 C44.2430016,4.78789781 41.5092502,3.06122449 38.3671028,3.06122449 C34.2013082,3.06122449 30.7560763,6.09687569 30.1167678,10.0653672 C29.7767759,10.0240017 29.4331126,9.99543066 29.0820098,9.99543066 C24.4616367,9.99543066 20.7152525,13.7247718 20.7152525,18.3260595 C20.7152525,18.5514534 20.7318704,18.7722298 20.7494546,18.9930062 C18.4065152,20.4694662 16.8469388,23.0653925 16.8469388,26.0302413 C16.8469388,28.651083 18.0646876,30.9857331 19.9650288,32.5127938 C19.9567198,32.6627678 19.9419376,32.8116837 19.9419376,32.9635817 C19.9419376,37.5640035 23.6874523,41.2942105 28.3086949,41.2942105 C29.6935895,41.2942105 30.9962638,40.9538589 32.1465746,40.3614663 C33.7402564,41.5012304 36.0223277,42.9270899 37.1272289,42.6428223 C37.1272289,42.6428223 37.5383303,48.9828081 37.4496367,50.592696 C37.2805586,53.6559563 36.3575854,57.0660134 35.7081323,59.8257663 L45.7675063,59.8257663 C45.7675063,59.8257663 44.2846431,53.6734645 44.2199103,51.6193302 C44.1552742,49.5650998 44.8648225,45.7824645 44.8648225,45.7824645 L48.3544013,42.1884751 C49.6976543,43.1028452 51.3200311,43.6226077 53.0699412,43.6226077 C57.3955387,43.6226077 60.9535216,40.3458821 61.390516,36.1538244 C64.5769136,34.9773124 66.8525116,31.924153 66.8525116,28.3411303 C66.8525116,26.2253326 66.0542698,24.3008744 64.7496631,22.8309558 C65.1026016,21.9090822 65.3049156,20.911981 65.3049156,19.8660108 Z M34.0792822,38.9861113 C34.7499908,38.3486014 35.3126828,37.6035412 35.7422377,36.7765197 L37.384904,40.203123 C37.3840344,40.2032192 36.4906257,40.5959992 34.0792822,38.9861113 Z M40.2213582,41.101909 C39.3713301,41.2555385 37.9236351,38.6494152 36.8962199,36.5308278 C38.0354199,37.1094639 39.3214762,37.4425044 40.6887867,37.4425044 C41.0398894,37.4425044 41.3845189,37.4140295 41.7245108,37.371702 C41.4602659,39.0671107 40.9946731,40.96117 40.2213582,41.101909 Z M43.8328664,42.7697086 C41.8667296,43.3133283 43.0438031,39.258354 43.6073645,36.9108133 C44.014891,36.7599735 44.4093744,36.5824866 44.7844379,36.3717149 C45.0108094,38.0827078 45.757265,39.6263147 46.863229,40.846982 C45.9050876,41.6943977 44.8019255,42.5019872 43.8328664,42.7697086 Z" id="Shape"></path>
                                    </g>
                                </g>
                            </g>
                        </g>
                    </g>
                </g>
            </g>
        </g>
    </g>
</svg>