<?xml version="1.0" encoding="UTF-8" standalone="no"?>
<svg width="23px" height="23px" viewBox="0 0 23 23" version="1.1" xmlns="http://www.w3.org/2000/svg" xmlns:xlink="http://www.w3.org/1999/xlink">
    <!-- Generator: Sketch 47.1 (45422) - http://www.bohemiancoding.com/sketch -->
    <title>insta copy</title>
    <desc>Created with Sketch.</desc>
    <defs></defs>
    <g id="Symbols" stroke="none" stroke-width="1" fill="none" fill-rule="evenodd">
        <g id="Footer" transform="translate(-691.000000, -212.000000)" fill-rule="nonzero" fill="#FFFFFF">
            <g id="insta-copy" transform="translate(691.000000, 212.000000)">
                <path d="M11.1668134,22.389269 C8.9561604,22.389269 6.74550743,22.3955936 4.5349104,22.3874779 C2.3278395,22.3793622 0.527167868,20.9175899 0.0951342857,18.7847354 C0.0308245832,18.4673846 0.00547010567,18.1371048 0.00507831567,17.8127018 C-0.000630639332,13.4007988 -0.00152616183,8.98889582 0.00239174817,4.57699285 C0.00440667317,2.34383987 1.4505634,0.538690609 3.59226115,0.0987652365 C3.91834325,0.031768969 4.25824995,0.005742849 4.59177608,0.0052391165 C8.99438803,-0.000693718501 13.397,-0.001477301 17.7995559,0.002328669 C20.4276343,0.0045674765 22.3850783,1.95518315 22.3879328,4.57788837 C22.3927462,8.98979135 22.3928022,13.4017503 22.3879328,17.8136533 C22.3850224,20.4359107 20.4270186,22.3840637 17.7986604,22.3885413 C15.5880634,22.3922913 13.3774104,22.3893249 11.1668134,22.389269 L11.1668134,22.389269 Z M17.8466268,9.52106002 C18.2921492,11.6352204 17.9654515,13.5835413 16.657653,15.3107242 C15.3474477,17.0409854 13.5865709,17.9732802 11.4196306,18.0619369 C9.45966788,18.1421421 7.74423878,17.4814704 6.35483578,16.0962652 C4.52136563,14.2683361 3.9598731,12.0434667 4.4753022,9.52273912 L2.5646492,9.52273912 L2.5646492,9.81367195 C2.5646492,12.6212466 2.58132833,15.4289891 2.55535818,18.2362839 C2.54657085,19.1809481 3.21630965,19.8122354 4.12022758,19.8096607 C8.81192533,19.7962839 13.5036791,19.8038399 18.1954328,19.8031122 C19.1912537,19.8030003 19.7627089,19.2355749 19.7629888,18.2477578 C19.7637724,15.4401831 19.7632686,12.6326085 19.7632686,9.8250339 L19.7632686,9.52106002 L17.8466268,9.52106002 L17.8466268,9.52106002 Z M15.480153,11.1872354 C15.4685112,8.7945115 13.5288656,6.87008987 11.141291,6.8824033 C8.76630965,6.8946048 6.83192533,8.83917567 6.84300743,11.2033548 C6.85425743,13.5918809 8.7990522,15.5199406 11.1854515,15.5082428 C13.5613283,15.496657 15.4916828,13.5544928 15.480153,11.1872354 L15.480153,11.1872354 Z M19.7623731,4.78962345 C19.7623731,4.52857867 19.7671306,4.26736597 19.7614776,4.00637717 C19.7450224,3.24216075 19.1526903,2.64356002 18.3906567,2.63012717 C17.8686791,2.6208921 17.3462537,2.6208921 16.8242201,2.6300712 C16.0648171,2.64344807 15.4649291,3.24479135 15.4513283,4.0068809 C15.4419813,4.52885852 15.4409179,5.05139582 15.4520559,5.57331747 C15.4679515,6.31676897 16.0686791,6.92113465 16.8106753,6.9380936 C17.341888,6.95023912 17.8738283,6.95040702 18.405041,6.93814957 C19.1507313,6.92091075 19.7425597,6.31911972 19.7610298,5.57286972 C19.7674664,5.31193687 19.7620373,5.0507242 19.7623731,4.78962345 L19.7623731,4.78962345 Z" id="Shape"></path>
            </g>
        </g>
    </g>
</svg>