<?xml version="1.0" encoding="UTF-8" standalone="no"?>
<svg width="452px" height="418px" viewBox="0 0 452 418" version="1.1" xmlns="http://www.w3.org/2000/svg" xmlns:xlink="http://www.w3.org/1999/xlink">
    <!-- Generator: Sketch 47.1 (45422) - http://www.bohemiancoding.com/sketch -->
    <title>Group</title>
    <desc>Created with Sketch.</desc>
    <defs>
        <rect id="path-1" x="0" y="273" width="648" height="257"></rect>
    </defs>
    <g id="Page-1" stroke="none" stroke-width="1" fill="none" fill-rule="evenodd">
        <g id="loading" transform="translate(-493.000000, -247.000000)">
            <g id="Group" transform="translate(396.000000, 247.000000)">
                <g id="Hummingbird-Network---Symbol---White" transform="translate(97.000000, 0.000000)" fill-rule="nonzero" fill="#FFFFFF">
                    <path d="M217.8,145.5 C217.8,160.3 235.4,159.1 235.4,159.1 L235.4,133.3 L235.4,112.9 L235.4,103.2 C235.4,89.3 224.1,78 210.2,78 C198,78 187.8,86.8 185.5,98.3 C185.2,99.9 185,101.5 185,103.2 C185,111.2 188.8,118.4 194.7,123 C194.8,123.1 195,123.2 195.1,123.3 C196.6,124.4 198.2,125.4 200,126.2 C204.8,128.5 211.2,130.7 217.8,132 L217.8,144.2 C217.8,144.7 217.8,145.1 217.8,145.5 Z M207.6,110.4 L207.6,110.4 C204.7,109.3 202.6,106.5 202.6,103.2 C202.6,99 206,95.6 210.2,95.6 C214.4,95.6 217.8,99 217.8,103.2 C217.8,103.2 217.8,103.2 217.8,103.2 L217.8,103.2 L217.8,112.9 C214.3,112.5 211,111.8 207.6,110.4 Z" id="Shape"></path>
                    <path d="M395.2,219.7 C357.6,261.7 308.6,289.9 254.1,297.1 C253.7,297.2 253.3,297.2 253,297.3 C252.8,297.3 252.6,297.3 252.4,297.4 C251.6,297.5 250.8,297.6 249.9,297.7 C249.3,297.8 248.8,297.8 248.2,297.9 C248.1,297.9 248.1,297.9 248,297.9 C240.8,298.6 233.5,299 226.1,299 C197.9,299 171.3,293.4 147.2,283.6 C116.2,271.2 88.1,251.7 64.1,226.8 L89.1,196.5 C123.5,231.8 168.2,254.2 217.1,256.7 L217.1,271.2 C217.1,271.6 217.1,272 217.1,272.4 C217.1,277 218.7,280.1 221,282.2 C224.8,285.7 230.7,286.5 234.8,286.6 C235,286.6 235.2,286.6 235.4,286.6 L235.4,256.7 C287.5,254 334.8,228.9 370.1,189.4 L376.6,182.1 L326.4,121.2 L319.9,128.5 C301,149.6 277.1,164.6 250.4,170.2 C242.6,171.9 234.5,172.8 226.3,172.8 C218.1,172.8 210.1,171.9 202.3,170.2 C178.6,165.2 157.2,152.9 139.5,135.5 L177.8,89.1 L177.8,89.1 L183.6,82 L226.3,30.2 L274.9,89.1 C272.7,91.1 270.3,93 268,94.8 C266.4,96 264.8,97.1 263.2,98.2 C262.4,98.7 262.4,98.7 261.5,99.2 C259.6,100.3 256.1,102.3 256,102.3 C256,102.3 255.9,102.4 255.8,102.4 C252.1,104.6 249.8,108.6 249.8,112.9 L249.8,127 C267.6,122.4 282.3,112.7 295.2,98.4 L301.7,91.1 L232.8,7.9 L226.3,0 L151,91.2 L126.1,121.3 L113.8,136.4 C118,141.1 122.6,145.8 127.3,150.4 C128,151.1 128.7,151.7 129.4,152.4 C130.4,153.4 131.5,154.4 132.6,155.4 C133.4,156.1 134.1,156.8 134.9,157.5 C136.9,159.3 138.9,161 141,162.6 C141.6,163.1 142.2,163.6 142.8,164 C142.8,164 142.8,164 142.9,164.1 C146.9,167.3 151.1,170.2 155.3,172.8 C155.3,172.8 155.4,172.9 155.4,172.9 C155.7,173.1 156,173.3 156.3,173.5 C156.6,173.7 156.9,173.9 157.2,174 C157.7,174.3 158.1,174.6 158.6,174.8 C162.4,177.1 166.4,179.2 170.4,181.1 C171.2,181.5 171.9,181.8 172.7,182.2 C173.4,182.5 174.2,182.9 174.9,183.2 C175.7,183.6 176.5,183.9 177.4,184.2 C178.5,184.6 179.5,185.1 180.6,185.5 C182.2,186.1 183.8,186.7 185.4,187.2 C188.1,188.1 190.8,188.9 193.6,189.7 C194.2,189.8 194.7,190 195.3,190.1 C202.4,191.9 209.7,193.1 217.2,193.6 L217.2,208.3 C217.2,208.4 217.2,209.1 217.2,210 C217.5,222 229.2,223.6 235.5,223.6 L235.5,193.6 C243,193.1 250.3,191.9 257.4,190.1 C259.6,189.5 261.8,188.9 264,188.3 C268,187.1 271.9,185.7 275.8,184.1 C276.7,183.7 277.6,183.3 278.5,183 C279.8,182.4 281.1,181.8 282.4,181.2 C286.5,179.3 290.5,177.1 294.4,174.8 C296.4,173.6 298.4,172.3 300.4,171 C301.9,170 303.4,169 304.8,168 C305.8,167.3 306.8,166.6 307.7,165.9 C308.5,165.3 309.2,164.8 309.9,164.2 C310.5,163.7 311.1,163.3 311.7,162.8 C313.8,161.2 315.8,159.5 317.8,157.7 C318.6,157 319.4,156.3 320.1,155.6 C321.9,154 323.6,152.3 325.3,150.6 L342.7,171.6 L350.6,181.1 C332.4,199.6 311.2,214.4 287.9,223.9 C287,224.3 286.2,224.6 285.3,224.9 C267,232.1 247.1,236.2 226.3,236.2 C205.5,236.2 185.7,232.2 167.3,224.9 C166.4,224.6 165.6,224.2 164.7,223.9 C151.3,218.4 138.5,211.1 126.7,202.4 C122.7,199.4 118.7,196.3 114.9,193 C110.2,188.9 105.9,184.8 102.2,180.9 C95.9,174.4 91.3,168.9 89.2,166.3 L76,182.3 L76.2,182.5 L76,182.3 L51,212.6 L39.8,226 C41.2,228.1 45.2,233.8 52.1,241.5 C62.1,252.6 78.3,267.8 102,282.7 C112,289.1 122.4,294.7 133.1,299.6 C159.3,311.5 187.6,318.6 217.2,319.8 L217.2,334.4 C217.2,334.8 217.2,335.2 217.2,335.6 C217.2,337.5 217.5,339.1 217.9,340.5 C217.9,340.5 217.9,340.6 217.9,340.6 C217.9,340.6 217.9,340.7 217.9,340.7 C220.7,348.4 230,349.6 235.4,349.6 L235.4,319.7 C298.8,317.1 356.2,287.5 400.5,241.4 L406.4,248.6 L425.5,271.7 C410.6,287.4 394.4,301.4 377.1,313.4 C372.3,316.7 367.4,319.9 362.4,323 C345.2,333.5 327,342.1 308,348.5 C306.5,349 305.1,349.5 303.6,350 C301,350.8 298.5,351.6 295.9,352.3 C293.5,353 291.1,353.6 288.7,354.2 C268.9,359.3 248,362.1 226.1,362.1 C194.2,362.1 164.1,356.2 137,345.8 C136.7,345.7 136.3,345.5 136,345.4 L136,345.4 C117.9,338.6 100.7,329.8 84.3,319.3 C83.3,318.7 82.3,318 81.4,317.4 C78.5,315.5 75.6,313.5 72.7,311.4 C67.4,307.6 62.2,303.6 57.1,299.5 C50.8,294.4 44.8,289 38.9,283.4 C34.6,279.2 30.7,275.2 27.3,271.6 C15.7,259.8 0,274.1 0,274.1 L6.5,281.4 C61.3,342.6 136.1,380.1 217.3,382.8 L217.3,402.6 C217.3,403 217.3,403.4 217.3,403.8 C217.3,404.6 217.4,405.4 217.5,406.1 C217.5,406.2 217.5,406.3 217.5,406.4 C217.5,406.4 217.5,406.4 217.5,406.4 C217.5,406.6 217.6,406.8 217.6,406.9 C219.5,416.3 229.8,417.7 235.6,417.7 L235.6,382.6 C316.8,379.9 390.5,341.3 445.3,280.1 L451.8,272.8 L401.8,212.2 L395.2,219.7 Z" id="Shape"></path>
                </g>
                <g id="Hummingbird-Network---Symbol---White-Copy" transform="translate(97.000000, 0.000000)">
                    <g></g>
                </g>
                <mask id="mask-2" fill="white">
                    <use xlink:href="#path-1"></use>
                </mask>
                <g id="Mask" opacity="0.550489739"></g>
                <path d="M314.8,145.5 C314.8,160.3 332.4,159.1 332.4,159.1 L332.4,133.3 L332.4,112.9 L332.4,103.2 C332.4,89.3 321.1,78 307.2,78 C295,78 284.8,86.8 282.5,98.3 C282.2,99.9 282,101.5 282,103.2 C282,111.2 285.8,118.4 291.7,123 C291.8,123.1 292,123.2 292.1,123.3 C293.6,124.4 295.2,125.4 297,126.2 C301.8,128.5 308.2,130.7 314.8,132 L314.8,144.2 C314.8,144.7 314.8,145.1 314.8,145.5 Z M304.6,110.4 L304.6,110.4 C301.7,109.3 299.6,106.5 299.6,103.2 C299.6,99 303,95.6 307.2,95.6 C311.4,95.6 314.8,99 314.8,103.2 C314.8,103.2 314.8,103.2 314.8,103.2 L314.8,103.2 L314.8,112.9 C311.3,112.5 308,111.8 304.6,110.4 Z" id="Shape" fill="#DA9127" fill-rule="nonzero" mask="url(#mask-2)"></path>
                <path d="M492.2,219.7 C454.6,261.7 405.6,289.9 351.1,297.1 C350.7,297.2 350.3,297.2 350,297.3 C349.8,297.3 349.6,297.3 349.4,297.4 C348.6,297.5 347.8,297.6 346.9,297.7 C346.3,297.8 345.8,297.8 345.2,297.9 C345.1,297.9 345.1,297.9 345,297.9 C337.8,298.6 330.5,299 323.1,299 C294.9,299 268.3,293.4 244.2,283.6 C213.2,271.2 185.1,251.7 161.1,226.8 L186.1,196.5 C220.5,231.8 265.2,254.2 314.1,256.7 L314.1,271.2 C314.1,271.6 314.1,272 314.1,272.4 C314.1,277 315.7,280.1 318,282.2 C321.8,285.7 327.7,286.5 331.8,286.6 C332,286.6 332.2,286.6 332.4,286.6 L332.4,256.7 C384.5,254 431.8,228.9 467.1,189.4 L473.6,182.1 L423.4,121.2 L416.9,128.5 C398,149.6 374.1,164.6 347.4,170.2 C339.6,171.9 331.5,172.8 323.3,172.8 C315.1,172.8 307.1,171.9 299.3,170.2 C275.6,165.2 254.2,152.9 236.5,135.5 L274.8,89.1 L274.8,89.1 L280.6,82 L323.3,30.2 L371.9,89.1 C369.7,91.1 367.3,93 365,94.8 C363.4,96 361.8,97.1 360.2,98.2 C359.4,98.7 359.4,98.7 358.5,99.2 C356.6,100.3 353.1,102.3 353,102.3 C353,102.3 352.9,102.4 352.8,102.4 C349.1,104.6 346.8,108.6 346.8,112.9 L346.8,127 C364.6,122.4 379.3,112.7 392.2,98.4 L398.7,91.1 L329.8,7.9 L323.3,0 L248,91.2 L223.1,121.3 L210.8,136.4 C215,141.1 219.6,145.8 224.3,150.4 C225,151.1 225.7,151.7 226.4,152.4 C227.4,153.4 228.5,154.4 229.6,155.4 C230.4,156.1 231.1,156.8 231.9,157.5 C233.9,159.3 235.9,161 238,162.6 C238.6,163.1 239.2,163.6 239.8,164 C239.8,164 239.8,164 239.9,164.1 C243.9,167.3 248.1,170.2 252.3,172.8 C252.3,172.8 252.4,172.9 252.4,172.9 C252.7,173.1 253,173.3 253.3,173.5 C253.6,173.7 253.9,173.9 254.2,174 C254.7,174.3 255.1,174.6 255.6,174.8 C259.4,177.1 263.4,179.2 267.4,181.1 C268.2,181.5 268.9,181.8 269.7,182.2 C270.4,182.5 271.2,182.9 271.9,183.2 C272.7,183.6 273.5,183.9 274.4,184.2 C275.5,184.6 276.5,185.1 277.6,185.5 C279.2,186.1 280.8,186.7 282.4,187.2 C285.1,188.1 287.8,188.9 290.6,189.7 C291.2,189.8 291.7,190 292.3,190.1 C299.4,191.9 306.7,193.1 314.2,193.6 L314.2,208.3 C314.2,208.4 314.2,209.1 314.2,210 C314.5,222 326.2,223.6 332.5,223.6 L332.5,193.6 C340,193.1 347.3,191.9 354.4,190.1 C356.6,189.5 358.8,188.9 361,188.3 C365,187.1 368.9,185.7 372.8,184.1 C373.7,183.7 374.6,183.3 375.5,183 C376.8,182.4 378.1,181.8 379.4,181.2 C383.5,179.3 387.5,177.1 391.4,174.8 C393.4,173.6 395.4,172.3 397.4,171 C398.9,170 400.4,169 401.8,168 C402.8,167.3 403.8,166.6 404.7,165.9 C405.5,165.3 406.2,164.8 406.9,164.2 C407.5,163.7 408.1,163.3 408.7,162.8 C410.8,161.2 412.8,159.5 414.8,157.7 C415.6,157 416.4,156.3 417.1,155.6 C418.9,154 420.6,152.3 422.3,150.6 L439.7,171.6 L447.6,181.1 C429.4,199.6 408.2,214.4 384.9,223.9 C384,224.3 383.2,224.6 382.3,224.9 C364,232.1 344.1,236.2 323.3,236.2 C302.5,236.2 282.7,232.2 264.3,224.9 C263.4,224.6 262.6,224.2 261.7,223.9 C248.3,218.4 235.5,211.1 223.7,202.4 C219.7,199.4 215.7,196.3 211.9,193 C207.2,188.9 202.9,184.8 199.2,180.9 C192.9,174.4 188.3,168.9 186.2,166.3 L173,182.3 L173.2,182.5 L173,182.3 L148,212.6 L136.8,226 C138.2,228.1 142.2,233.8 149.1,241.5 C159.1,252.6 175.3,267.8 199,282.7 C209,289.1 219.4,294.7 230.1,299.6 C256.3,311.5 284.6,318.6 314.2,319.8 L314.2,334.4 C314.2,334.8 314.2,335.2 314.2,335.6 C314.2,337.5 314.5,339.1 314.9,340.5 C314.9,340.5 314.9,340.6 314.9,340.6 C314.9,340.6 314.9,340.7 314.9,340.7 C317.7,348.4 327,349.6 332.4,349.6 L332.4,319.7 C395.8,317.1 453.2,287.5 497.5,241.4 L503.4,248.6 L522.5,271.7 C507.6,287.4 491.4,301.4 474.1,313.4 C469.3,316.7 464.4,319.9 459.4,323 C442.2,333.5 424,342.1 405,348.5 C403.5,349 402.1,349.5 400.6,350 C398,350.8 395.5,351.6 392.9,352.3 C390.5,353 388.1,353.6 385.7,354.2 C365.9,359.3 345,362.1 323.1,362.1 C291.2,362.1 261.1,356.2 234,345.8 C233.7,345.7 233.3,345.5 233,345.4 L233,345.4 C214.9,338.6 197.7,329.8 181.3,319.3 C180.3,318.7 179.3,318 178.4,317.4 C175.5,315.5 172.6,313.5 169.7,311.4 C164.4,307.6 159.2,303.6 154.1,299.5 C147.8,294.4 141.8,289 135.9,283.4 C131.6,279.2 127.7,275.2 124.3,271.6 C112.7,259.8 97,274.1 97,274.1 L103.5,281.4 C158.3,342.6 233.1,380.1 314.3,382.8 L314.3,402.6 C314.3,403 314.3,403.4 314.3,403.8 C314.3,404.6 314.4,405.4 314.5,406.1 C314.5,406.2 314.5,406.3 314.5,406.4 C314.5,406.4 314.5,406.4 314.5,406.4 C314.5,406.6 314.6,406.8 314.6,406.9 C316.5,416.3 326.8,417.7 332.6,417.7 L332.6,382.6 C413.8,379.9 487.5,341.3 542.3,280.1 L548.8,272.8 L498.8,212.2 L492.2,219.7 Z" id="Shape" fill="#DA9127" fill-rule="nonzero" mask="url(#mask-2)"></path>
            </g>
        </g>
    </g>
</svg>