<?xml version="1.0" encoding="UTF-8" standalone="no"?>
<svg width="17px" height="26px" viewBox="0 0 17 26" version="1.1" xmlns="http://www.w3.org/2000/svg" xmlns:xlink="http://www.w3.org/1999/xlink">
    <!-- Generator: Sketch 47.1 (45422) - http://www.bohemiancoding.com/sketch -->
    <title>location marker copy</title>
    <desc>Created with Sketch.</desc>
    <defs></defs>
    <g id="Symbols" stroke="none" stroke-width="1" fill="none" fill-rule="evenodd">
        <g id="Footer" transform="translate(-384.000000, -122.000000)" fill-rule="nonzero" fill="#000000">
            <g id="location-marker-copy" transform="translate(384.000000, 122.000000)">
                <g id="Group" transform="translate(0.000000, 0.180716)">
                    <path d="M8.5,0.0992885 C3.81564717,0.0992885 0,3.9149385 0,8.59928 C0,10.3797467 0.682909833,12.7055167 1.53177083,14.1331483 L7.76510417,24.6164817 C7.91729311,24.8782343 8.19721969,25.0392815 8.5,25.0392815 C8.80278031,25.0392815 9.08270689,24.8782343 9.23489583,24.6164817 L15.4682292,14.1331483 C16.3171043,12.7054883 17,10.3797467 17,8.59928 C17,3.9149385 13.1843557,0.0992885 8.5,0.0992885 Z M8.5,1.7992885 C12.2656077,1.7992885 15.3,4.83367517 15.3,8.59928 C15.3,9.86425 14.597679,12.2576233 13.9984375,13.26544 L8.5,22.5092183 L3.0015625,13.26544 C2.40233517,12.2576233 1.7,9.86425 1.7,8.59928 C1.7,4.83367517 4.73439517,1.7992885 8.5,1.7992885 Z M8.5,4.3492885 C6.162857,4.3492885 4.25,6.26214833 4.25,8.59928 C4.25,10.9363833 6.1628485,12.84928 8.5,12.84928 C10.8371515,12.84928 12.75,10.9363833 12.75,8.59928 C12.75,6.26214833 10.837143,4.3492885 8.5,4.3492885 Z M8.5,6.04928 C9.918395,6.04928 11.05,7.180885 11.05,8.59928 C11.05,10.0176467 9.9183865,11.14928 8.5,11.14928 C7.0816135,11.14928 5.95,10.0176467 5.95,8.59928 C5.95,7.180885 7.081605,6.04928 8.5,6.04928 Z" id="Shape"></path>
                </g>
            </g>
        </g>
    </g>
</svg>