<?xml version="1.0" encoding="UTF-8" standalone="no"?>
<svg width="134px" height="118px" viewBox="0 0 134 118" version="1.1" xmlns="http://www.w3.org/2000/svg" xmlns:xlink="http://www.w3.org/1999/xlink">
    <!-- Generator: Sketch 47.1 (45422) - http://www.bohemiancoding.com/sketch -->
    <title>moose</title>
    <desc>Created with Sketch.</desc>
    <defs></defs>
    <g id="Page-1" stroke="none" stroke-width="1" fill="none" fill-rule="evenodd">
        <g id="Who-We-Are" transform="translate(-646.000000, -190.000000)" fill-rule="nonzero" fill="#DA9127">
            <g id="who-we-are-title" transform="translate(562.000000, 190.000000)">
                <g id="moose" transform="translate(84.000000, 0.000000)">
                    <path d="M90.4391096,110.986577 C90.4391096,110.986577 93.0541962,111.825503 96.3230545,113 C96.4864974,113 96.4864974,113 96.6499403,113 C96.8133833,113 96.9768262,113 97.1402691,112.832215 C97.4671549,112.66443 97.6305978,112.328859 97.6305978,112.161074 L97.9574837,110.483221 C98.1209266,109.979866 97.7940407,109.47651 97.303712,109.308725 L92.8907533,107.798658 C92.7273104,107.798658 92.5638675,107.798658 92.2369816,107.798658 L89.9487808,93.5369128 C89.621895,90.852349 89.621895,88.1677852 89.621895,85.4832215 L90.6025525,63 C90.1122237,65.1812081 89.4584521,66.5234899 89.2950092,66.6912752 C87.9874658,69.0402685 87.3336942,70.5503356 86.0261509,73.9060403 C86.0261509,73.9060403 86.0261509,79.6107383 86.0261509,79.6107383 C86.0261509,79.6107383 85.862708,80.7852349 86.3530367,83.1342282 L86.3530367,83.1342282 L89.4584521,109.812081 C89.4584521,110.315436 89.7853379,110.818792 90.4391096,110.986577 Z" id="Shape"></path>
                    <path d="M36.9514563,71.3573883 L38,70.8522337 L36.776699,70.6838488 C33.4563107,70.0103093 31.184466,69.3367698 30.3106796,69 L30.1359223,69 L29.961165,69 C29.0873786,69.5051546 26.4660194,70.6838488 23.4951456,73.0412371 L23.3203883,73.209622 L20,91.0584192 L23.8446602,98.467354 C25.4174757,103.687285 27.3398058,110.085911 27.8640777,114.127148 L27.8640777,114.463918 L28.2135922,114.463918 C28.2135922,114.969072 28.3883495,115.305842 28.9126214,115.474227 C29.0873786,115.474227 32.2330097,116.821306 35.7281553,118 C35.9029126,118 35.9029126,118 36.0776699,118 C36.2524272,118 36.4271845,118 36.6019417,117.831615 C36.9514563,117.66323 37.1262136,117.32646 37.1262136,117.158076 L37.4757282,115.474227 C37.6504854,114.969072 37.3009709,114.295533 36.6019417,114.295533 L31.184466,112.948454 L30.8349515,112.611684 C30.4854369,111.264605 28.2135922,99.4776632 26.2912621,91.395189 C28.2135922,83.9862543 31.7087379,74.2199313 36.9514563,71.3573883 Z" id="Shape"></path>
                    <path d="M131.457402,43.748785 C127.597987,40.2447951 118.033351,32.4025319 117.865551,32.4025319 C117.865551,32.4025319 117.69775,32.4025319 117.69775,32.2356752 C117.529949,32.0688186 114.677339,28.2311153 109.139918,26.7294054 C112.663731,26.0619787 119.207956,24.3934121 125.416579,19.3877122 C126.087782,18.8871422 126.255582,17.8860022 125.58438,17.2185756 C125.080978,16.5511489 124.074174,16.5511489 123.402972,17.0517189 C120.38256,19.3877122 117.194348,21.0562788 114.509538,22.0574188 C113.502734,22.3911321 112.32813,21.3899921 112.831532,20.3888522 C113.167133,19.5545689 113.334934,18.7202855 113.670535,17.8860022 C113.838335,17.2185756 113.502734,16.3842923 112.831532,16.0505789 C111.992528,15.7168656 110.985725,16.2174356 110.650123,17.0517189 C110.146721,19.3877122 109.139918,21.0562788 108.300915,22.0574188 C107.461911,22.8917021 106.119506,22.8917021 105.448304,21.8905621 C102.931294,18.3865722 99.2396803,11.7123057 102.427892,4.53746919 C102.763494,3.87004254 102.595693,3.03575922 101.92449,2.7020459 C101.085487,2.20147591 100.078683,2.53518923 99.5752815,3.36947255 C96.5548701,10.0437391 98.5684777,16.2174356 100.917687,20.5557088 C101.253288,21.2231355 100.582085,22.0574188 99.7430822,21.7237055 C98.0650758,20.7225655 95.8836676,19.3877122 94.8768638,17.8860022 C92.1920536,14.2151556 89.0038416,8.20831577 90.178446,1.86776258 C90.3462466,1.03347927 89.8428447,0.199195953 89.0038416,0.0323392901 C88.1648384,-0.134517373 87.3258352,0.366052616 87.1580346,1.20033593 C86.1512308,6.87346247 87.8292371,12.046019 90.0106454,16.0505789 C90.3462466,16.7180056 89.6750441,17.3854322 89.0038416,16.8848622 C84.1376232,13.3808723 79.2714048,8.37517244 76.2509933,1.03347927 C75.9153921,0.366052616 75.2441895,-0.134517373 74.572987,0.0323392901 C73.5661832,0.199195953 73.0627813,1.20033593 73.3983825,2.03461925 C78.0968003,13.547729 86.8224333,19.7214255 93.1988574,22.8917021 C96.7226707,24.5602687 99.7430822,25.5614087 102.092291,26.2288354 C101.588889,26.2288354 101.085487,26.395692 100.582085,26.395692 C97.5616739,26.896262 94.5412625,27.2299754 91.5208511,27.2299754 C85.6478289,27.2299754 80.7816105,26.2288354 77.2577971,25.3945521 L77.0899965,25.3945521 C76.5865946,25.2276954 76.0831927,25.2276954 75.5797908,25.0608387 C75.0763889,24.8939821 74.572987,24.8939821 74.0695851,24.8939821 C69.8745692,24.8939821 63.4981451,27.5636887 60.6455343,28.898542 C60.6455343,28.898542 60.6455343,28.898542 60.4777337,28.898542 C53.0945058,31.2345353 42.8586671,31.7351053 35.4754392,31.7351053 C30.944822,31.7351053 26.9176068,31.5682486 24.4005973,31.4013919 C22.3869897,31.2345353 20.3733821,31.7351053 18.5275751,32.5693886 L9.46634083,37.0745185 L9.29854019,37.0745185 C8.45953702,37.7419451 4.60012243,41.5796484 4.9357237,47.2527749 C4.9357237,48.0870582 5.10352433,48.9213415 5.27132497,49.7556249 C5.10352433,51.0904782 4.9357237,52.5921881 4.60012243,54.0938981 C4.43232179,54.5944681 4.26452116,55.0950381 4.09672053,55.5956081 C3.92891989,56.096178 3.76111926,56.596748 3.42551799,56.9304614 C3.25771735,57.097318 3.25771735,57.4310313 3.08991672,57.597888 C2.92211608,57.7647447 2.92211608,57.9316013 2.75431545,58.098458 C2.58651482,58.2653147 2.58651482,58.4321713 2.41871418,58.599028 C2.25091355,58.7658847 2.25091355,58.9327413 2.08311291,59.099598 C1.74751164,59.4333113 1.57971101,59.600168 1.41191037,59.9338813 C1.24410974,60.100738 0.908508471,60.2675946 0.740707836,60.4344513 C0.405106567,60.7681646 0.237305933,60.9350213 0.237305933,60.9350213 L0.237305933,60.9350213 C0.0695052986,61.1018779 -0.0982953359,61.4355913 0.0695052986,61.6024479 C0.237305933,61.9361612 0.572907202,61.9361612 0.740707836,61.9361612 C0.740707836,61.9361612 1.07630911,61.7693046 1.41191037,61.6024479 C1.57971101,61.4355913 1.91531228,61.2687346 2.25091355,61.1018779 C2.58651482,60.9350213 2.92211608,60.6013079 3.25771735,60.4344513 C3.42551799,60.2675946 3.59331862,60.100738 3.76111926,59.9338813 C3.92891989,59.7670246 4.09672053,59.600168 4.26452116,59.4333113 C4.43232179,59.2664546 4.60012243,59.099598 4.76792306,58.7658847 C4.9357237,58.599028 5.10352433,58.2653147 5.27132497,58.098458 C5.60692624,57.597888 5.9425275,57.097318 6.27812877,56.596748 C6.61373004,56.096178 6.94933131,55.5956081 7.11713195,55.0950381 C7.45273321,55.9293214 7.95613512,56.7636047 8.29173639,57.597888 C11.6477491,63.9384412 10.9765465,74.1166976 4.9357237,78.9555409 L4.76792306,79.1223975 L4.76792306,81.4583908 L4.76792306,81.4583908 C5.60692624,83.6275274 6.44592941,89.801224 7.11713195,93.9726405 C7.28493258,95.3074938 7.45273321,96.3086338 7.62053385,97.1429171 C7.78833448,100.98062 7.62053385,106.653747 7.11713195,114.829723 L7.11713195,115.330293 L7.95613512,115.330293 C7.95613512,115.330293 8.12393575,115.330293 8.12393575,115.330293 C8.29173639,115.330293 11.3121478,116.164577 14.6681605,116.99886 C14.8359611,116.99886 14.8359611,116.99886 15.0037618,116.99886 C15.1715624,116.99886 15.339363,116.99886 15.5071637,116.832003 C15.8427649,116.665147 16.0105656,116.49829 16.0105656,116.331433 L16.3461668,115.163437 C16.5139675,114.829723 16.1783662,114.49601 15.5071637,114.329153 L9.96974273,113.49487 C10.1375434,112.660587 12.8223535,96.1417772 11.8155497,87.6320873 C16.0105656,75.2846943 27.2532081,67.6092878 27.75661,67.4424311 C27.9244106,67.4424311 28.0922113,67.4424311 28.2600119,67.4424311 C28.2600119,67.4424311 35.4754392,70.1121377 45.3756766,70.1121377 C51.2486988,70.1121377 56.7861197,69.1109978 61.9879394,67.4424311 C62.15574,67.4424311 62.15574,67.4424311 62.3235407,67.4424311 L77.4255978,69.1109978 C77.761199,69.1109978 77.9289997,69.4447111 77.9289997,69.7784244 C77.9289997,70.1121377 77.9289997,70.6127077 77.761199,71.446991 C77.4255978,74.2835543 76.9221959,80.4572508 78.9358035,87.4652307 C79.2714048,88.4663707 79.4392054,89.801224 79.7748067,91.3029339 L79.9426073,113.99544 C79.607006,114.49601 79.9426073,115.163437 80.4460092,115.49715 C80.6138098,115.49715 83.29862,116.832003 86.6546327,118 C86.8224333,118 86.8224333,118 86.9902339,118 C87.1580346,118 87.3258352,118 87.4936358,117.833143 C87.8292371,117.666287 87.9970377,117.332573 87.9970377,117.165717 L88.332639,115.49715 C88.5004396,114.99658 88.1648384,114.49601 87.6614365,114.329153 L83.1308193,112.827443 C82.9630187,112.827443 82.7952181,112.827443 82.6274174,112.827443 L84.4732244,73.449271 C85.144427,71.947561 85.8156295,70.4458511 86.6546327,68.9441411 C87.9970377,66.2744345 89.1716422,63.6047279 90.178446,60.9350213 C90.8496485,59.600168 91.3530504,58.4321713 91.5208511,57.4310313 C91.6886517,57.097318 92.5276549,55.9293214 92.8632561,55.7624647 C93.5344587,56.2630347 97.3938733,58.9327413 102.092291,58.9327413 C105.951706,58.9327413 109.307718,57.2641747 112.49593,54.0938981 C114.845139,51.5910481 116.690946,50.4230515 118.536753,50.4230515 C120.38256,50.4230515 121.557165,51.5910481 122.396168,52.5921881 C122.563968,52.7590448 122.563968,52.7590448 122.731769,52.9259014 C124.241975,54.4276114 125.416579,55.4287514 126.758984,55.4287514 C127.430187,55.4287514 127.933589,55.2618947 128.436991,54.7613247 C128.604791,54.5944681 128.772592,54.5944681 129.108193,54.5944681 C129.108193,54.5944681 129.611595,54.7613247 130.450598,54.7613247 C131.457402,54.7613247 132.128605,54.4276114 132.632007,53.9270414 C134.310013,51.9247615 134.981215,46.9190616 131.457402,43.748785 Z" id="Shape"></path>
                </g>
            </g>
        </g>
    </g>
</svg>