<?xml version="1.0" encoding="UTF-8" standalone="no"?>
<svg width="13px" height="24px" viewBox="0 0 13 24" version="1.1" xmlns="http://www.w3.org/2000/svg" xmlns:xlink="http://www.w3.org/1999/xlink">
    <!-- Generator: Sketch 47.1 (45422) - http://www.bohemiancoding.com/sketch -->
    <title>smart phone copy</title>
    <desc>Created with Sketch.</desc>
    <defs></defs>
    <g id="Symbols" stroke="none" stroke-width="1" fill="none" fill-rule="evenodd">
        <g id="Footer" transform="translate(-650.000000, -162.000000)" fill-rule="nonzero" fill="#000000">
            <g id="smart-phone-copy" transform="translate(650.000000, 162.000000)">
                <path d="M7.53409091,3.54220455 L5.46709091,3.54220455 C5.10013636,3.54220455 4.80231818,3.24409091 4.80231818,2.87743182 C4.80231818,2.51047727 5.10013636,2.21265909 5.46709091,2.21265909 L7.53409091,2.21265909 C7.90104545,2.21265909 8.19886364,2.51047727 8.19886364,2.87743182 C8.19886364,3.24409091 7.90104545,3.54220455 7.53409091,3.54220455 Z" id="Shape"></path>
                <path d="M12.1875,5.60890909 L0.813681818,5.60890909 C0.446727273,5.60890909 0.148909091,5.31109091 0.148909091,4.94413636 C0.148909091,4.57747727 0.446727273,4.27936364 0.813681818,4.27936364 L12.1875,4.27936364 C12.5544545,4.27936364 12.8522727,4.57747727 12.8522727,4.94413636 C12.8522727,5.31138636 12.5544545,5.60890909 12.1875,5.60890909 Z" id="Shape"></path>
                <path d="M12.1875,17.6383409 L0.813681818,17.6383409 C0.446727273,17.6383409 0.148909091,17.3405227 0.148909091,16.9735682 C0.148909091,16.6066136 0.446727273,16.3087955 0.813681818,16.3087955 L12.1875,16.3087955 C12.5544545,16.3087955 12.8522727,16.6066136 12.8522727,16.9735682 C12.8522727,17.3405227 12.5544545,17.6383409 12.1875,17.6383409 Z" id="Shape"></path>
                <path d="M6.49881818,20.7013182 C6.17854545,20.7013182 5.87777273,20.5760455 5.65411364,20.3476591 C5.20236364,19.8837955 5.20413636,19.1351136 5.65647727,18.6753864 C6.11561364,18.2200909 6.89768182,18.2286591 7.34618182,18.6807045 C7.80295455,19.1436818 7.79970455,19.8950227 7.33968182,20.3559318 C7.11040909,20.5804773 6.81377273,20.7013182 6.49881818,20.7013182 Z M6.49881818,19.3717727 C6.46306818,19.3717727 6.4285,19.3868409 6.40368182,19.4110682 C6.34370455,19.4704545 6.34370455,19.5582045 6.39895455,19.6152273 C6.45272727,19.6672273 6.54372727,19.669 6.59927273,19.6131591 C6.65629545,19.55525 6.65688636,19.4716364 6.60459091,19.4178636 C6.57563636,19.3886136 6.53693182,19.3717727 6.49881818,19.3717727 Z" id="Shape"></path>
                <path d="M10.5843636,23.3583409 L2.41681818,23.3583409 C1.16586364,23.3583409 0.147727273,22.3405 0.147727273,21.0895455 L0.147727273,2.54681818 C0.147727273,1.29615909 1.16556818,0.278022727 2.41681818,0.278022727 L10.5849545,0.278022727 C11.8350227,0.278022727 12.8528636,1.29586364 12.8528636,2.54681818 L12.8528636,21.0895455 C12.8522727,22.3402045 11.8350227,23.3583409 10.5843636,23.3583409 Z M2.41681818,1.60756818 C1.89918182,1.60756818 1.47727273,2.02918182 1.47727273,2.54681818 L1.47727273,21.0895455 C1.47727273,21.6071818 1.89918182,22.0287955 2.41681818,22.0287955 L10.5849545,22.0287955 C11.1025909,22.0287955 11.5233182,21.6071818 11.5233182,21.0895455 L11.5233182,2.54681818 C11.5233182,2.02918182 11.1025909,1.60756818 10.5849545,1.60756818 L2.41681818,1.60756818 Z" id="Shape"></path>
            </g>
        </g>
    </g>
</svg>