<?xml version="1.0" encoding="UTF-8" standalone="no"?>
<svg width="23px" height="19px" viewBox="0 0 23 19" version="1.1" xmlns="http://www.w3.org/2000/svg" xmlns:xlink="http://www.w3.org/1999/xlink">
    <!-- Generator: Sketch 47.1 (45422) - http://www.bohemiancoding.com/sketch -->
    <title>twitter copy</title>
    <desc>Created with Sketch.</desc>
    <defs></defs>
    <g id="Symbols" stroke="none" stroke-width="1" fill="none" fill-rule="evenodd">
        <g id="Footer" transform="translate(-736.000000, -214.000000)" fill-rule="nonzero" fill="#1e1e1e">
            <g id="twitter-copy" transform="translate(736.000000, 214.000000)">
                <path d="M7.43412484,18.1009746 C15.6628204,17.8959594 20.1565002,11.0500033 20.1565002,5.10103299 C20.1565002,4.90272222 20.152234,4.70547003 20.1433462,4.50962932 C21.0427932,3.86529576 21.8238544,3.06005521 22.4410244,2.14366181 C21.6151685,2.50711395 20.727809,2.7527088 19.7963659,2.86315589 C20.7470067,2.29751146 21.4772296,1.40193718 21.8210103,0.334517107 C20.9311622,0.858170452 19.9456812,1.23856015 18.8969189,1.4435754 C18.056487,0.555411312 16.8598315,0 15.5355469,0 C12.9922094,0 10.9302361,2.04662364 10.9302361,4.57102803 C10.9302361,4.92918717 10.9711201,5.27781893 11.0496884,5.61233601 C7.22223928,5.42178832 3.82922666,3.60205761 1.55785639,0.836998483 C1.1614598,1.51203142 0.934287219,2.29715861 0.934287219,3.13486283 C0.934287219,4.72029042 1.74734464,6.11940469 2.98310658,6.93911273 C2.22799773,6.91547069 1.51803897,6.70974972 0.896958392,6.36746959 C0.896602879,6.38652436 0.896602879,6.405932 0.896602879,6.42498677 C0.896602879,8.63957467 2.48396683,10.4868289 4.59073474,10.9067396 C4.20429249,11.011188 3.79758603,11.0672938 3.37737008,11.0672938 C3.08087254,11.0672938 2.79219628,11.0383587 2.51098579,10.9850759 C3.09722612,12.8009251 4.79764307,14.1224088 6.81304424,14.1594598 C5.23670119,15.3853168 3.25116311,16.1161026 1.09391239,16.1161026 C0.723823736,16.1161026 0.358712254,16.0945777 0,16.0525866 L0,16.0550567 C1.96634043,17.3052615 4.28890449,18.0505147 6.78495876,18.1009746 L7.43412484,18.1009746" id="Shape"></path>
            </g>
        </g>
    </g>
</svg>