<?xml version="1.0" encoding="UTF-8" standalone="no"?>
<svg width="378px" height="451px" viewBox="0 0 378 451" version="1.1" xmlns="http://www.w3.org/2000/svg" xmlns:xlink="http://www.w3.org/1999/xlink">
    <!-- Generator: Sketch 47.1 (45422) - http://www.bohemiancoding.com/sketch -->
    <title>Stroke 2</title>
    <desc>Created with Sketch.</desc>
    <defs></defs>
    <g id="Page-1" stroke="none" stroke-width="1" fill="none" fill-rule="evenodd">
        <g id="Our-Impact" transform="translate(-1004.000000, -3936.000000)" fill="#698E87">
            <g id="where-we-work" transform="translate(19.000000, 3683.000000)">
                <g id="provinces" transform="translate(0.000000, 227.000000)">
                    <g id="yukon" transform="translate(985.000000, 0.000000)">
                        <g id="yukon-shape">
                            <path d="M57.7019849,18.068383 L56.0732354,20.1791044 L53.4760402,17.9584496 L52.7937263,16.8591155 L55.7871037,13.9348868 L57.1077115,14.0448203 L59.9029978,15.7817681 L60.9374738,17.3208358 L57.7019849,18.068383 Z M108.985584,55.9492366 L108.963574,70.9023787 L108.963574,86.5349092 L108.963574,101.96956 L108.963574,117.20633 L109.183676,119.492945 L109.843979,121.383799 L112.529215,123.956241 L113.145499,124.769748 L113.651732,125.979016 L114.422086,129.211058 L114.246005,132.50906 L114.246005,133.914009 L114.620177,135.387117 L114.972339,136.334743 L115.214451,137.41209 L115.676664,139.960347 L115.632643,140.820026 L114.796258,143.942135 L113.453641,146.22875 L113.40962,147.15219 L113.34359,148.579126 L113.3656,150.933899 L113.937863,153.572301 L114.444096,154.625463 L115.302491,155.155342 L120.959094,155.155342 L126.615697,155.155342 L132.2723,155.155342 L137.928904,155.155342 L143.585507,155.155342 L149.24211,155.155342 L154.898713,155.155342 L156.13128,155.155342 L156.1753,156.76037 L156.615503,158.209292 L158.728475,160.278239 L160.225164,162.344987 L161.28165,164.499682 L161.501751,166.148683 L161.21562,167.797684 L161.061549,168.740913 L161.193609,169.840247 L161.743863,171.183633 L161.787883,171.928982 L161.875923,172.852422 L162.624268,173.822035 L164.076936,176.062478 L164.407088,177.073865 L164.120956,178.524986 L163.944875,179.868372 L164.076936,181.693267 L164.032916,182.658482 L163.636734,183.012468 L163.02045,183.078428 L162.360146,183.296096 L161.963964,184.463589 L161.36969,187.805564 L161.171599,188.904898 L161.36969,189.938272 L161.963964,189.980047 L164.098946,190.136153 L164.869301,190.378006 L165.441564,190.8837 L165.683676,192.662422 L165.771716,194.643422 L165.727696,196.204477 L165.243473,197.499492 L163.944875,199.370559 L163.592713,200.140093 L163.614724,201.195453 L164.208997,202.382734 L164.627189,204.27139 L164.67121,206.008338 L165.309503,206.579992 L167.070314,206.931779 L168.809114,206.911991 L172.418775,204.493456 L176.116477,203.457883 L178.163419,203.416108 L178.559601,203.965775 L178.581611,204.73311 L178.119398,205.942378 L177.569145,208.011325 L177.965327,208.824832 L178.867743,208.97654 L180.474482,208.275165 L181.552978,206.18643 L182.587454,204.909004 L184.546356,203.394121 L185.27269,203.655763 L187.121541,205.350936 L189.344564,205.128871 L189.894817,205.832444 L189.938837,206.977951 L186.021034,210.317728 L185.712893,211.727074 L186.131085,212.848395 L187.01149,213.527783 L189.212503,216.080437 L190.841253,218.496773 L192.800154,222.718216 L192.822164,224.14735 L191.391506,226.963844 L189.850797,231.449127 L185.977014,236.308184 L185.492791,238.221025 L184.898518,239.166452 L181.641019,241.760881 L181.420918,242.772268 L181.530968,243.651735 L181.86112,244.201402 L182.719515,244.485031 L184.656406,243.827629 L185.25068,243.673722 L186.021034,244.355309 L186.065055,247.213578 L186.505257,247.917152 L189.168483,248.818606 L189.740746,249.654099 L189.718736,250.531368 L189.190493,251.325087 L187.209581,253.721635 L186.90144,254.315276 L186.90144,256.404011 L186.747369,257.745198 L185.18465,259.680026 L184.854498,260.405587 L184.876508,261.219094 L185.096609,261.878694 L185.778923,262.516308 L188.7723,262.648228 L190.37904,263.329815 L194.604985,266.122124 L195.661471,266.957618 L198.808919,271.882634 L201.582195,273.355742 L202.044408,273.861436 L202.30853,274.716718 L202.022398,275.906197 L200.833851,278.786452 L200.59174,279.663721 L200.70179,280.5234 L201.362094,280.855399 L204.861704,280.855399 L206.314373,280.25956 L207.56895,279.226186 L208.559406,277.599172 L209.351771,277.269371 L211.200621,277.797052 L214.32606,279.907773 L215.998829,283.381669 L215.910789,284.56895 L216.196921,285.712257 L216.791194,286.327884 L217.80366,288.152779 L218.155822,289.362046 L218.155822,290.483367 L217.605569,291.714621 L217.82567,292.398407 L218.970197,294.418983 L219.47643,295.848117 L220.554926,296.661624 L221.23724,298.354599 L223.152121,300.269639 L226.057458,301.630615 L229.006815,304.752723 L230.613555,305.983977 L233.430851,306.643578 L233.849044,307.281192 L233.783013,308.182646 L233.298791,308.688339 L231.031747,309.787673 L230.261393,310.513234 L230.173352,311.282768 L230.525514,312.074288 L231.339889,312.404088 L233.342811,311.544409 L233.959094,311.656541 L234.223216,312.360115 L234.531358,313.635343 L234.90553,314.272956 L236.62232,315.152424 L237.216593,316.449638 L238.36112,317.834799 L238.999414,319.307906 L239.197505,320.888749 L238.008958,324.408817 L237.150563,325.728017 L234.135175,328.234499 L233.386831,329.35582 L233.518892,330.103367 L234.97156,330.762968 L236.5783,332.741769 L238.008958,333.973023 L238.713282,335.314211 L239.549667,338.150493 L241.376508,339.09592 L243.44546,339.183867 L243.797622,339.601614 L243.687571,340.525054 L241.7947,345.142257 L241.7947,346.681325 L241.508568,347.978539 L241.70666,349.407673 L242.895207,351.782235 L243.203348,352.639716 L243.335409,353.848983 L243.665561,354.53057 L245.16225,355.563944 L245.536422,356.179571 L246.130695,358.51016 L246.218736,359.389627 L247.033111,360.181147 L251.721268,363.017429 L252.139461,364.00683 L251.941369,364.862112 L250.202569,366.095565 L250.026488,366.777152 L250.070508,367.370792 L250.950914,368.338206 L251.149005,368.997807 L250.136539,371.152501 L250.092519,372.339782 L251.060964,374.780304 L251.281066,375.483878 L251.149005,376.231425 L250.708802,377.000959 L250.554731,377.726519 L250.840863,378.298173 L251.743278,379.023733 L253.173937,379.463467 L255.595051,379.199627 L257.686013,379.727307 L258.236266,380.057108 L259.006621,381.662135 L259.534864,382.035909 L260.283208,381.816042 L262.198089,379.991147 L263.430657,379.573401 L264.509153,379.793267 L267.678611,383.28915 L268.338915,385.092058 L270.473898,387.730459 L271.002141,389.577341 L271.508374,390.346874 L273.731397,391.358262 L274.655822,392.523556 L275.184065,393.930704 L275.690298,396.766985 L279.36599,400.592668 L281.21484,401.867896 L282.337357,403.36299 L283.283792,404.15451 L286.057069,405.08015 L289.380598,405.011991 L290.767236,405.737552 L291.999803,406.968806 L292.990259,409.453301 L293.848654,410.860448 L294.86112,416.313145 L294.993181,417.896186 L294.751069,420.798428 L293.650563,422.139616 L293.364431,422.64531 L293.430462,423.085043 L294.178806,423.876564 L295.961627,423.37087 L296.357809,423.810604 L297.062133,427.966087 L296.864042,430.626475 L296.996103,431.615876 L297.458315,432.693223 L297.436305,434.212503 L298.030579,435.265665 L298.558822,435.485532 L299.835409,435.045798 L301.860341,435.551492 L304.721658,434.012424 L308.067197,434.803944 L309.123683,434.650038 L309.960068,434.276264 L310.356251,433.660637 L310.356251,432.253489 L310.598362,431.745597 L311.808919,431.352035 L312.733344,431.461969 L313.041486,432.844931 L313.7238,433.37481 L314.934357,433.660637 L315.836773,431.396009 L316.343006,430.692435 L316.981299,430.384621 L317.685623,430.384621 L320.789052,432.383211 L327.260029,434.364211 L328.360536,434.342224 L330.187376,432.97905 L331.728085,432.253489 L337.076547,431.615876 L337.494739,429.043434 L337.934942,428.073821 L338.551225,427.54834 L342.314957,427.570326 L342.975261,427.87814 L344.47195,433.154943 L344.49396,434.518118 L342.402998,438.035987 L342.402998,438.805521 L342.645109,439.616829 L345.220294,443.422724 L346.518892,446.346952 L349.55629,447.182446 L350.018502,448.01794 L350.436695,451.997529 L350.832877,453.270558 L352.439616,457.076453 L354.530579,460.990082 L354.640629,462.065231 L354.222437,463.606497 L354.266457,464.156164 L354.596609,464.376031 L356.841642,464.398018 L357.589986,465.167552 L358.052199,465.9129 L339.27756,465.9129 L320.50292,465.9129 L301.72828,465.9129 L282.953641,465.9129 L264.179001,465.9129 L245.404361,465.9129 L226.629722,465.9129 L207.855082,465.9129 L189.080442,465.9129 L170.305803,465.9129 L151.531163,465.9129 L132.756523,465.9129 L113.981884,465.9129 L95.207244,465.9129 L76.4326043,465.9129 L57.4598735,465.893112 L54.9287087,462.66107 L55.8751443,459.143201 L57.0196709,454.921758 L57.0196709,452.371303 L53.9602631,452.52521 L49.3601462,452.767063 L45.2442522,452.98693 L42.2068544,455.977119 L39.389558,458.747441 L34.9875323,456.592746 L29.9472128,454.130238 L28.5165545,457.36228 L23.8283971,455.735265 L19.0521992,454.086264 L19.0521992,442.433323 L19.0521992,430.670448 L19.0521992,418.79764 L19.0521992,406.814899 L19.0521992,394.722224 L19.0521992,382.519616 L19.0521992,370.185087 L19.0521992,357.740626 L19.0521992,345.166443 L19.0521992,332.455942 L19.0521992,319.61572 L19.0521992,306.643578 L19.0521992,293.539516 L19.0521992,280.303533 L19.0521992,266.933432 L19.0521992,253.413822 L19.0521992,239.738106 L19.0521992,225.908483 L19.0521992,211.924954 L19.0521992,197.787518 L19.0521992,183.471989 L19.0521992,169.004753 L19.0521992,154.363822 L19.0521992,139.544798 L19.0521992,124.527895 L19.0521992,109.335098 L19.0521992,93.9444209 L19.0521992,78.3558637 L19.0521992,62.5694264 L19.0521992,46.5631222 L19.0521992,30.3369513 L19.0521992,13.9129002 L21.8474855,14.7923674 L30.827618,16.6392487 L39.2795073,15.5399146 L54.972729,21.520292 L64.6791957,32.6455528 L72.5588217,38.0762632 L75.7723005,41.7920123 L80.8786503,45.0680279 L92.8961805,52.1477393 L96.6379023,52.8732998 L103.615113,56.2592488 L107.929098,55.8195151 L108.985584,55.9492366 Z" id="Stroke-2" transform="translate(188.552199, 239.912900) rotate(-5.000000) translate(-188.552199, -239.912900) "></path>
                        </g>
                    </g>
                </g>
            </g>
        </g>
    </g>
</svg>