<?xml version="1.0" encoding="UTF-8" standalone="no"?>
<svg width="233px" height="445px" viewBox="0 0 233 445" version="1.1" xmlns="http://www.w3.org/2000/svg" xmlns:xlink="http://www.w3.org/1999/xlink">
    <!-- Generator: Sketch 47.1 (45422) - http://www.bohemiancoding.com/sketch -->
    <title>Stroke 2</title>
    <desc>Created with Sketch.</desc>
    <defs></defs>
    <g id="Page-1" stroke="none" stroke-width="1" fill="none" fill-rule="evenodd">
        <g id="Our-Impact" transform="translate(-636.000000, -3945.000000)" fill="#698E87">
            <g id="where-we-work" transform="translate(19.000000, 3683.000000)">
                <g id="provinces" transform="translate(0.000000, 227.000000)">
                    <g id="alberta" transform="translate(617.000000, 35.000000)">
                        <g id="Alberta">
                            <polygon id="Stroke-2" points="233 445 225.515726 445 215.588668 445 205.635623 445 195.708566 445 185.781508 445 175.85445 445 165.901405 445 155.974348 445 146.04729 445 138.355119 445 138.640977 444.244615 138.485055 443.411086 136.717934 441.405409 135.990297 439.527365 135.392594 438.77198 131.546509 437.263814 131.000781 436.479776 130.818871 435.779092 129.883337 434.997659 128.635958 432.88779 126.634954 430.725825 126.115213 429.788106 126.063239 428.642004 126.401071 426.24561 126.349097 425.359986 125.803368 425.096904 123.958287 424.917174 123.126701 424.474362 122.710908 423.794515 122.632947 423.198022 123.828352 421.791442 124.841847 418.639663 124.945795 416.243269 123.854339 411.294193 124.010261 410.538808 124.63395 409.444802 124.63395 408.194509 124.244145 406.683739 123.126701 404.209202 121.437542 395.847869 116.681909 389.049403 115.408543 387.874649 114.395048 387.590728 113.537475 387.590728 112.108186 388.606591 111.718381 388.734225 111.354562 388.398209 110.315079 387.252107 109.405532 385.767385 109.275597 385.478255 109.353558 384.985952 109.561454 384.334758 109.275597 383.475181 108.703881 382.641653 108.444011 382.303032 108.132166 382.303032 107.768347 382.355128 107.508476 382.381175 107.222619 382.198841 106.41702 381.287169 101.739349 377.640482 101.609413 377.116922 102.830805 375.660852 102.622909 374.644989 102.103168 373.681222 98.0231988 369.695914 94.6188936 368.523765 93.2675664 367.481854 92.9037475 366.697817 92.4099933 364.225884 92.2540709 363.757024 91.9422262 363.496546 90.0711577 362.40254 89.1096364 361.256439 87.3944903 360.318719 86.7188267 359.381 85.9911889 355.627517 84.4319652 353.778126 83.6523533 352.058973 82.5608967 350.941524 81.5214142 349.378658 80.0141646 348.050222 78.4549409 343.986771 77.5194066 342.788574 76.5059112 342.423905 75.5443899 342.866717 74.7907651 343.517911 74.4009592 344.221201 74.2450368 345.367303 73.8812179 345.62778 71.9581753 345.679876 71.3604729 344.846347 69.0476244 339.193983 68.1380772 337.657165 64.2140308 333.098806 62.4728976 328.957211 61.8232211 328.85302 60.965648 329.400023 56.2360027 329.504214 52.4418916 327.003629 51.5843185 326.06591 50.7787196 324.555139 52.8057105 321.481503 52.8836716 320.309354 52.2859692 319.89259 49.3494312 318.509453 46.5688155 316.402189 45.9711131 317.157574 45.6072942 318.613644 45.2174883 319.1893 42.177002 320.283306 41.4753513 320.205163 40.9815971 319.345587 40.8776489 318.121342 41.3973901 316.50638 40.4358688 315.149292 39.9161276 313.458792 38.4608521 311.114493 39.1884899 309.160911 38.9286192 307.858523 38.2789427 306.579577 37.0055766 304.938568 36.6417578 302.961543 35.5243141 301.320534 34.9266116 300.927213 32.5098149 300.66934 31.9380995 300.122337 31.0545394 297.699895 30.8206558 295.613469 29.5992639 294.365781 28.7676779 294.079255 28.6117555 291.891243 27.9101048 290.666998 25.3373857 288.400843 23.4923043 287.463123 22.946576 288.687368 22.8166406 291.214001 22.2709123 291.031667 17.2554093 288.478986 16.1379656 287.228694 14.0070265 282.904765 13.2014276 282.566144 9.53725184 282.123332 8.23789873 282.485396 7.48427392 282.201475 6.4707785 281.055373 4.23589114 277.484225 3.40430515 276.809588 2.52074504 276.54911 2.46877091 274.543432 1.87106848 273.136853 1.94902967 272.746137 2.67666741 272.641946 6.02899844 272.641946 6.21090787 271.912608 4.41780058 269.33388 2.72864153 268.995259 2.26087441 268.39616 1.97501673 266.546769 0.675663618 265.478811 0 263.629419 0.0259870622 248.36543 0.0259870622 232.945153 0.0259870622 217.394638 0.0259870622 201.687837 0.0259870622 185.824748 0.0259870622 169.805373 0.0259870622 153.629712 0.0259870622 137.269111 0.0259870622 120.757434 0.0259870622 104.058212 0.0259870622 87.2079138 0.0259870622 70.1466284 0.0259870622 52.9030087 0.0259870622 35.4510068 0.0259870622 17.8427183 0.0259870622 0 14.604729 0 29.1574838 0 43.7102387 0 58.2629935 0 72.8417354 0 87.3944903 0 101.947245 0 116.525987 0 131.078742 0 145.631497 0 160.184252 0 174.762994 0 189.315748 0 203.868503 0 218.447245 0 233 0 233 15.9386268 233 31.7261765 233 47.3808827 233 62.8532545 233 78.1693397 233 93.3551861 233 108.384746 233 123.255414 233 138.001054 233 152.613849 233 167.096406 233 181.446119 233 195.670803 233 209.760039 233 223.750293 233 237.607703 233 251.360923 233 264.983903 233 278.502693 233 291.891243 233 305.201651 233 318.381819 233 331.483845 233 344.453026 233 357.349274 233 370.138726 233 382.850035 233 395.454548 233 407.96008 233 420.384863 233 432.731503"></polygon>
                        </g>
                    </g>
                </g>
            </g>
        </g>
    </g>
</svg>