<?xml version="1.0" encoding="UTF-8" standalone="no"?>
<svg width="107px" height="103px" viewBox="0 0 107 103" version="1.1" xmlns="http://www.w3.org/2000/svg" xmlns:xlink="http://www.w3.org/1999/xlink">
    <!-- Generator: Sketch 47.1 (45422) - http://www.bohemiancoding.com/sketch -->
    <title>wolf</title>
    <desc>Created with Sketch.</desc>
    <defs></defs>
    <g id="Page-1" stroke="none" stroke-width="1" fill="none" fill-rule="evenodd">
        <g id="Home" transform="translate(-667.000000, -3141.000000)" fill-rule="nonzero" fill="#DA9127">
            <g id="Our-impact" transform="translate(0.000000, 3081.000000)">
                <g id="our-impact-lead-text" transform="translate(425.000000, 60.000000)">
                    <g id="wolf" transform="translate(242.000000, 0.000000)">
                        <path d="M94.4462959,54.6530612 C90.8232312,60.4318676 86.6427719,66.7885546 85.8066801,67.6553756 C85.6673314,67.7998457 85.2492855,68.5221965 84.9705882,72.8563013 C85.8066801,77.0459359 89.708442,93.8044744 91.9380203,95.6825864 C91.9380203,96.2604671 92.3560662,96.6938776 92.9134608,96.6938776 L97.7906633,96.6938776 C98.3480578,96.6938776 98.9054524,96.4049372 99.3234983,95.8270566 C99.6021956,95.3936461 99.7415442,94.9602356 99.6021956,94.5268252 C97.511966,93.6600042 95.2823877,92.9376534 92.9134608,92.6487131 C92.2167176,87.8811978 88.8723502,70.4003086 92.3560662,61.8765692 C93.7495527,58.4092854 94.3069472,56.5311733 94.4462959,54.6530612 Z" id="Shape"></path>
                        <path d="M20.071525,69.8207283 C20.9379217,66.2142857 20.6491228,63.9061625 20.6491228,63.9061625 C20.6491228,63.3291317 20.9379217,62.8963585 21.5155196,62.8963585 C22.0931174,62.8963585 22.5263158,63.1848739 22.5263158,63.7619048 C22.5263158,64.0504202 23.2483131,71.2633053 18.0499325,79.6302521 C17.1835358,81.2170868 16.0283401,82.5154062 15.1619433,83.6694678 C13.7179487,85.5448179 12.562753,86.8431373 12.851552,88.5742297 C12.9959514,89.7282913 14.1511471,100.114846 14.5843455,102.134454 C14.5843455,102.567227 15.0175439,103 15.5951417,103 L20.6491228,103 C21.2267206,103 21.8043185,102.711485 22.2375169,102.422969 C22.8151147,101.701681 22.6707152,100.836134 21.8043185,100.403361 L20.7935223,99.8263305 C20.7935223,99.8263305 20.6491228,99.8263305 20.6491228,99.6820728 C20.6491228,99.6820728 20.5047233,99.6820728 20.3603239,99.5378151 C20.2159244,99.5378151 20.2159244,99.3935574 20.071525,99.3935574 C19.6383266,99.2492997 18.9163293,99.105042 18.3387314,98.9607843 C18.0499325,98.9607843 17.7611336,98.9607843 17.4723347,98.8165266 C17.3279352,98.8165266 17.1835358,98.8165266 17.0391363,98.8165266 C16.8947368,98.8165266 16.7503374,98.8165266 16.6059379,98.8165266 C16.6059379,96.7969188 17.4723347,90.7380952 17.6167341,90.4495798 C18.4831309,87.5644258 19.9271255,84.3907563 24.9811066,81.0728291 C24.9811066,81.0728291 25.1255061,81.0728291 25.1255061,80.9285714 C26.8582996,79.7745098 28.5910931,78.7647059 30.4682861,77.6106443 C31.0458839,77.3221289 31.6234818,76.8893557 31.9122807,76.745098 C34.3670715,75.302521 40.8650472,65.3487395 43.0310391,61.5980392 C43.3198381,61.1652661 43.8974359,61.0210084 44.3306343,61.3095238 C44.7638327,61.5980392 44.9082321,62.17507 44.6194332,62.6078431 C44.1862348,63.1848739 42.7422402,65.6372549 40.8650472,68.522409 C43.1754386,67.6568627 46.6410256,66.6470588 48.8070175,67.0798319 C52.2726046,67.6568627 71.4777328,68.9551821 73.6437247,67.9453782 L75.5209177,67.0798319 C75.0877193,65.4929972 74.9433198,64.3389356 74.9433198,64.3389356 C74.7989204,63.9061625 75.0877193,63.3291317 75.6653171,63.1848739 C76.0985155,63.0406162 76.6761134,63.3291317 76.8205128,63.9061625 C76.8205128,64.0504202 77.1093117,65.3487395 77.5425101,67.0798319 C77.5425101,67.0798319 77.5425101,67.0798319 77.5425101,67.2240896 C77.5425101,67.3683473 77.6869096,67.512605 77.6869096,67.6568627 C78.9865047,72.9943978 81.1524966,82.3711485 81.4412955,84.9677871 C81.585695,85.5448179 84.4736842,99.2492997 87.5060729,101.990196 C87.6504723,102.567227 88.0836707,102.855742 88.5168691,102.855742 L93.5708502,102.855742 C94.148448,102.855742 94.7260459,102.567227 95.1592443,101.990196 C95.4480432,101.557423 95.5924426,101.12465 95.4480432,100.691877 C93.2820513,99.8263305 91.1160594,99.105042 88.805668,98.8165266 C87.217274,94.6330532 84.6180837,87.2759104 85.0512821,78.7647059 C85.6288799,67.8011204 85.9176788,66.6470588 86.4952767,66.2142857 C87.3616734,65.3487395 94.8704453,54.5294118 98.6248313,48.1820728 C98.9136302,47.7492997 99.2024291,47.1722689 99.4912281,46.7394958 C101.368421,43.4215686 103.534413,39.2380952 104.112011,34.7661064 C104.689609,30.4383754 104.545209,26.5434174 104.545209,23.802521 C104.545209,21.6386555 104.545209,20.0518207 104.689609,18.8977591 C105.122807,16.7338936 106.278003,12.9831933 106.566802,12.4061625 C106.855601,9.5210084 107,5.48179272 107,4.18347339 C105.556005,2.45238095 103.823212,0.577030812 103.101215,0 C102.090418,0.721288515 99.3468286,4.03921569 97.1808367,7.06862745 C97.0364372,7.21288515 96.7476383,7.35714286 96.6032389,7.50140056 C94.8704453,7.64565826 91.9824561,8.22268908 91.2604588,8.51120448 C90.8272605,8.79971989 89.2388664,10.9635854 88.0836707,12.4061625 C87.0728745,13.8487395 86.0620783,15.2913165 85.340081,16.012605 C84.7624831,16.5896359 83.6072874,16.8781513 82.3076923,17.3109244 C81.2968961,17.5994398 79.5641026,18.0322129 79.4197031,18.6092437 C79.4197031,18.7535014 79.4197031,19.0420168 79.8529015,19.4747899 C82.1632928,22.359944 87.7948718,21.0616246 87.7948718,21.0616246 C88.2280702,20.9173669 85.340081,23.5140056 82.5964912,23.0812325 C81.7300945,25.1008403 79.2753036,31.0154062 74.5101215,33.7563025 C64.1133603,39.9593838 55.4493927,40.2478992 47.9406208,40.3921569 C44.4750337,40.5364146 41.0094467,40.5364146 37.8326586,41.2577031 C28.3022942,43.2773109 22.8151147,48.3263305 22.3819163,48.7591036 C21.8043185,49.3361345 14.8731444,57.9915966 11.2631579,69.2436975 C8.51956815,77.8991597 3.03238866,81.5056022 0,82.9481793 C1.58839406,83.3809524 3.89878543,83.6694678 6.64237517,82.9481793 C10.6855601,81.5056022 15.5951417,77.1778711 20.071525,69.8207283 Z" id="Shape"></path>
                        <path d="M35.0593395,80.3707931 C38.5928793,76.226638 41.5374957,72.7969925 43.0098039,69.3673469 C41.3902649,69.7960526 40.0651875,70.3676602 39.1818025,70.653464 C39.0345717,70.653464 38.8873409,70.653464 38.8873409,70.653464 C36.5316477,73.7973058 34.0287238,76.9411475 32.5564155,77.7985589 C32.1147231,78.0843627 31.6730306,78.3701665 31.0841073,78.6559703 C29.7590299,79.3704798 28.1394909,80.3707931 26.2254902,81.5140082 C26.5199518,83.228831 27.4033368,96.2329037 28.5811834,100.948666 C28.5811834,100.948666 28.5811834,100.948666 28.5811834,100.948666 C28.5811834,100.948666 28.5811834,101.091568 28.5811834,101.091568 C28.5811834,101.520274 29.0228758,101.94898 29.6117991,101.94898 L34.7648779,101.94898 C35.3538012,101.94898 35.9427245,101.663176 36.3844169,101.377372 C36.9733402,100.662863 36.8261094,99.8054511 35.9427245,99.3767454 L34.9121087,98.8051378 C34.9121087,98.8051378 34.7648779,98.8051378 34.7648779,98.6622359 C34.7648779,98.6622359 34.6176471,98.6622359 34.4704162,98.519334 C34.3231854,98.519334 34.3231854,98.3764322 34.1759546,98.3764322 C33.7342621,98.2335303 32.998108,98.0906284 32.4091847,97.9477265 C32.1147231,97.9477265 31.8202614,97.9477265 31.5257998,97.8048246 C31.378569,97.8048246 31.2313381,97.8048246 31.0841073,97.8048246 C30.9368765,97.8048246 30.7896457,97.8048246 30.6424149,97.8048246 C30.9368765,94.0893752 30.0534916,86.3726728 31.0841073,85.2294576 C32.2619539,83.6575367 33.7342621,81.9427139 35.0593395,80.3707931 Z" id="Shape"></path>
                    </g>
                </g>
            </g>
        </g>
    </g>
</svg>